G04 #@! TF.GenerationSoftware,KiCad,Pcbnew,(5.1.2)-1*
G04 #@! TF.CreationDate,2020-06-07T15:31:51+02:00*
G04 #@! TF.ProjectId,ir-detector,69722d64-6574-4656-9374-6f722e6b6963,rev?*
G04 #@! TF.SameCoordinates,Original*
G04 #@! TF.FileFunction,Legend,Bot*
G04 #@! TF.FilePolarity,Positive*
%FSLAX46Y46*%
G04 Gerber Fmt 4.6, Leading zero omitted, Abs format (unit mm)*
G04 Created by KiCad (PCBNEW (5.1.2)-1) date 2020-06-07 15:31:51*
%MOMM*%
%LPD*%
G04 APERTURE LIST*
%ADD10C,0.100000*%
%ADD11C,0.254000*%
G04 APERTURE END LIST*
D10*
X71000000Y-51600000D02*
X73500000Y-51600000D01*
X80100000Y-51600000D02*
X76500000Y-51600000D01*
X80100000Y-57400000D02*
X80100000Y-51600000D01*
X80100000Y-57400000D02*
X76500000Y-57400000D01*
X69900000Y-57400000D02*
X73500000Y-57400000D01*
X69900000Y-57400000D02*
X69900000Y-52975000D01*
D11*
X75095952Y-55240476D02*
X75216904Y-55180000D01*
X75337857Y-55059047D01*
X75519285Y-54877619D01*
X75640238Y-54817142D01*
X75761190Y-54817142D01*
X75700714Y-55119523D02*
X75821666Y-55059047D01*
X75942619Y-54938095D01*
X76003095Y-54696190D01*
X76003095Y-54272857D01*
X75942619Y-54030952D01*
X75821666Y-53910000D01*
X75700714Y-53849523D01*
X75458809Y-53849523D01*
X75337857Y-53910000D01*
X75216904Y-54030952D01*
X75156428Y-54272857D01*
X75156428Y-54696190D01*
X75216904Y-54938095D01*
X75337857Y-55059047D01*
X75458809Y-55119523D01*
X75700714Y-55119523D01*
X73946904Y-55119523D02*
X74672619Y-55119523D01*
X74309761Y-55119523D02*
X74309761Y-53849523D01*
X74430714Y-54030952D01*
X74551666Y-54151904D01*
X74672619Y-54212380D01*
M02*
