G04 #@! TF.GenerationSoftware,KiCad,Pcbnew,(5.1.2)-1*
G04 #@! TF.CreationDate,2020-06-07T15:31:51+02:00*
G04 #@! TF.ProjectId,ir-detector,69722d64-6574-4656-9374-6f722e6b6963,rev?*
G04 #@! TF.SameCoordinates,Original*
G04 #@! TF.FileFunction,Copper,L1,Top*
G04 #@! TF.FilePolarity,Positive*
%FSLAX46Y46*%
G04 Gerber Fmt 4.6, Leading zero omitted, Abs format (unit mm)*
G04 Created by KiCad (PCBNEW (5.1.2)-1) date 2020-06-07 15:31:51*
%MOMM*%
%LPD*%
G04 APERTURE LIST*
%ADD10R,0.900000X0.500000*%
%ADD11C,4.400000*%
%ADD12C,0.700000*%
%ADD13C,1.500000*%
%ADD14R,1.200000X1.700000*%
%ADD15O,1.200000X1.700000*%
%ADD16R,1.300000X1.300000*%
%ADD17R,2.000000X1.300000*%
%ADD18R,0.500000X0.900000*%
%ADD19C,1.250000*%
%ADD20C,0.500000*%
%ADD21R,1.500000X1.500000*%
%ADD22R,1.525000X0.650000*%
%ADD23R,0.800000X0.800000*%
%ADD24R,0.800000X0.750000*%
%ADD25C,0.800000*%
%ADD26C,0.250000*%
%ADD27C,0.254000*%
G04 APERTURE END LIST*
D10*
X77436000Y-62878000D03*
X77436000Y-64378000D03*
X75936000Y-62878000D03*
X75936000Y-64378000D03*
D11*
X82042000Y-48514000D03*
D12*
X83692000Y-48514000D03*
X83208726Y-49680726D03*
X82042000Y-50164000D03*
X80875274Y-49680726D03*
X80392000Y-48514000D03*
X80875274Y-47347274D03*
X82042000Y-46864000D03*
X83208726Y-47347274D03*
D13*
X76708000Y-60706000D03*
D14*
X68500000Y-61000000D03*
D15*
X70500000Y-61000000D03*
X72500000Y-61000000D03*
D16*
X80350000Y-63750000D03*
D17*
X81500000Y-58250000D03*
D16*
X82650000Y-63750000D03*
D18*
X73672000Y-49530000D03*
X75172000Y-49530000D03*
X73672000Y-46736000D03*
X75172000Y-46736000D03*
X66250000Y-54000000D03*
X67750000Y-54000000D03*
X66250000Y-55500000D03*
X67750000Y-55500000D03*
D19*
X75000000Y-57040000D03*
X75000000Y-52050000D03*
D20*
X70350000Y-52050000D03*
D13*
X77750000Y-55770000D03*
X77750000Y-53230000D03*
X72250000Y-53230000D03*
D21*
X72250000Y-55770000D03*
D22*
X66288000Y-50405000D03*
X66288000Y-49135000D03*
X66288000Y-47865000D03*
X66288000Y-46595000D03*
X71712000Y-46595000D03*
X71712000Y-47865000D03*
X71712000Y-49135000D03*
X71712000Y-50405000D03*
D23*
X76670000Y-49530000D03*
X78270000Y-49530000D03*
X76670000Y-46736000D03*
X78270000Y-46736000D03*
D24*
X66250000Y-52500000D03*
X67750000Y-52500000D03*
X66250000Y-57000000D03*
X67750000Y-57000000D03*
D25*
X67000000Y-58500000D03*
X67000000Y-51500000D03*
X75946000Y-48006000D03*
X82500000Y-60000000D03*
X70093888Y-48814184D03*
X73660000Y-54102000D03*
X73406000Y-51054000D03*
X80000000Y-61500000D03*
X68775000Y-55637653D03*
X70500020Y-56500000D03*
X69000000Y-48000000D03*
X77724000Y-61722000D03*
X74294509Y-61103884D03*
D26*
X66250000Y-57750000D02*
X67000000Y-58500000D01*
X66250000Y-57000000D02*
X66250000Y-57750000D01*
X70750000Y-60750000D02*
X71000000Y-60750000D01*
X70500000Y-60750000D02*
X70500000Y-61000000D01*
X67000000Y-51500000D02*
X67000000Y-51750000D01*
X67000000Y-51750000D02*
X66250000Y-52500000D01*
X82500000Y-60000000D02*
X82500000Y-59250000D01*
X82500000Y-59250000D02*
X81500000Y-58250000D01*
X70414704Y-49135000D02*
X70093888Y-48814184D01*
X68400000Y-51875000D02*
X67775000Y-52500000D01*
X67775000Y-52500000D02*
X67750000Y-52500000D01*
X68832002Y-51875000D02*
X68400000Y-51875000D01*
X70575001Y-50132001D02*
X68832002Y-51875000D01*
X71712000Y-49135000D02*
X71274500Y-49135000D01*
X70575001Y-49834499D02*
X70575001Y-50132001D01*
X71274500Y-49135000D02*
X70575001Y-49834499D01*
X71712000Y-49135000D02*
X70414704Y-49135000D01*
X75172000Y-46736000D02*
X76670000Y-46736000D01*
X75172000Y-49530000D02*
X76670000Y-49530000D01*
X65524999Y-59024999D02*
X67500000Y-61000000D01*
X67500000Y-61000000D02*
X68500000Y-61000000D01*
X66250000Y-55700000D02*
X65524999Y-56425001D01*
X66250000Y-55500000D02*
X66250000Y-55700000D01*
X65524999Y-56425001D02*
X65524999Y-59024999D01*
X66250000Y-55500000D02*
X66250000Y-54000000D01*
X66250000Y-54000000D02*
X65750000Y-54000000D01*
X65750000Y-54000000D02*
X65524999Y-53774999D01*
X65524999Y-53774999D02*
X65524999Y-51743001D01*
X65524999Y-51743001D02*
X66288000Y-50980000D01*
X66288000Y-50980000D02*
X66288000Y-50405000D01*
X68500000Y-61250000D02*
X68500000Y-61000000D01*
X75936000Y-64378000D02*
X71628000Y-64378000D01*
X71628000Y-64378000D02*
X68500000Y-61250000D01*
X75936000Y-64378000D02*
X77436000Y-64378000D01*
X73672000Y-46736000D02*
X73672000Y-49530000D01*
X73406000Y-49796000D02*
X73672000Y-49530000D01*
X73406000Y-51054000D02*
X73406000Y-49796000D01*
X74422000Y-54102000D02*
X73660000Y-54102000D01*
X75936000Y-64353000D02*
X75182988Y-63599988D01*
X75936000Y-64378000D02*
X75936000Y-64353000D01*
X75182988Y-63599988D02*
X75182988Y-59183012D01*
X75182988Y-59183012D02*
X76674999Y-57691001D01*
X76674999Y-57691001D02*
X76674999Y-56354999D01*
X76674999Y-56354999D02*
X74422000Y-54102000D01*
X75936000Y-62228000D02*
X75936000Y-62878000D01*
X75632999Y-61924999D02*
X75936000Y-62228000D01*
X77750000Y-58072998D02*
X75632999Y-60189999D01*
X75632999Y-60189999D02*
X75632999Y-61924999D01*
X77750000Y-55770000D02*
X77750000Y-58072998D01*
X80000000Y-61500000D02*
X80000000Y-63400000D01*
X80000000Y-63400000D02*
X80350000Y-63750000D01*
X68637347Y-55500000D02*
X68775000Y-55637653D01*
X67750000Y-55500000D02*
X68637347Y-55500000D01*
X78250000Y-47000000D02*
X78250000Y-46800000D01*
X69500000Y-55250000D02*
X69500000Y-56500000D01*
X68250000Y-54000000D02*
X69500000Y-55250000D01*
X69500000Y-56500000D02*
X69000000Y-57000000D01*
X69000000Y-57000000D02*
X67750000Y-57000000D01*
X67750000Y-57000000D02*
X68750000Y-57000000D01*
X68750000Y-57000000D02*
X72500000Y-60750000D01*
X72500000Y-60750000D02*
X72500000Y-61000000D01*
X67750000Y-54000000D02*
X68250000Y-54000000D01*
X71712000Y-50405000D02*
X72149500Y-50405000D01*
X70363413Y-50980000D02*
X70699500Y-50980000D01*
X68250000Y-54000000D02*
X69500000Y-52750000D01*
X69500000Y-52750000D02*
X69500000Y-51843413D01*
X69500000Y-51843413D02*
X70363413Y-50980000D01*
X71274500Y-50405000D02*
X71712000Y-50405000D01*
X70699500Y-50980000D02*
X71274500Y-50405000D01*
X78270000Y-47386000D02*
X78270000Y-46736000D01*
X79248000Y-48364000D02*
X78270000Y-47386000D01*
X71712000Y-50884000D02*
X72615498Y-51787498D01*
X71712000Y-50405000D02*
X71712000Y-50884000D01*
X72615498Y-51787498D02*
X72586996Y-51816000D01*
X75692000Y-53594000D02*
X79248000Y-50038000D01*
X72586996Y-51816000D02*
X72644000Y-51816000D01*
X72644000Y-51816000D02*
X74422000Y-53594000D01*
X79248000Y-50038000D02*
X79248000Y-48364000D01*
X74422000Y-53594000D02*
X75692000Y-53594000D01*
X69135000Y-47865000D02*
X69000000Y-48000000D01*
X71712000Y-47865000D02*
X69135000Y-47865000D01*
X77724000Y-62590000D02*
X77436000Y-62878000D01*
X77724000Y-61722000D02*
X77724000Y-62590000D01*
X77724000Y-61722000D02*
X76708000Y-60706000D01*
X73894510Y-60703885D02*
X74294509Y-61103884D01*
X70500020Y-56500000D02*
X70500020Y-57309395D01*
X70500020Y-57309395D02*
X73894510Y-60703885D01*
D27*
G36*
X84340001Y-64840000D02*
G01*
X83760364Y-64840000D01*
X83830537Y-64754494D01*
X83889502Y-64644180D01*
X83925812Y-64524482D01*
X83938072Y-64400000D01*
X83935000Y-64035750D01*
X83776250Y-63877000D01*
X82777000Y-63877000D01*
X82777000Y-63897000D01*
X82523000Y-63897000D01*
X82523000Y-63877000D01*
X82503000Y-63877000D01*
X82503000Y-63623000D01*
X82523000Y-63623000D01*
X82523000Y-62623750D01*
X82777000Y-62623750D01*
X82777000Y-63623000D01*
X83776250Y-63623000D01*
X83935000Y-63464250D01*
X83938072Y-63100000D01*
X83925812Y-62975518D01*
X83889502Y-62855820D01*
X83830537Y-62745506D01*
X83751185Y-62648815D01*
X83654494Y-62569463D01*
X83544180Y-62510498D01*
X83424482Y-62474188D01*
X83300000Y-62461928D01*
X82935750Y-62465000D01*
X82777000Y-62623750D01*
X82523000Y-62623750D01*
X82364250Y-62465000D01*
X82000000Y-62461928D01*
X81875518Y-62474188D01*
X81755820Y-62510498D01*
X81645506Y-62569463D01*
X81548815Y-62648815D01*
X81500000Y-62708296D01*
X81451185Y-62648815D01*
X81354494Y-62569463D01*
X81244180Y-62510498D01*
X81124482Y-62474188D01*
X81000000Y-62461928D01*
X80760000Y-62461928D01*
X80760000Y-62203711D01*
X80803937Y-62159774D01*
X80917205Y-61990256D01*
X80995226Y-61801898D01*
X81035000Y-61601939D01*
X81035000Y-61398061D01*
X80995226Y-61198102D01*
X80917205Y-61009744D01*
X80803937Y-60840226D01*
X80659774Y-60696063D01*
X80490256Y-60582795D01*
X80301898Y-60504774D01*
X80101939Y-60465000D01*
X79898061Y-60465000D01*
X79698102Y-60504774D01*
X79509744Y-60582795D01*
X79340226Y-60696063D01*
X79196063Y-60840226D01*
X79082795Y-61009744D01*
X79004774Y-61198102D01*
X78965000Y-61398061D01*
X78965000Y-61601939D01*
X79004774Y-61801898D01*
X79082795Y-61990256D01*
X79196063Y-62159774D01*
X79240000Y-62203711D01*
X79240001Y-62659555D01*
X79169463Y-62745506D01*
X79110498Y-62855820D01*
X79074188Y-62975518D01*
X79061928Y-63100000D01*
X79061928Y-64400000D01*
X79074188Y-64524482D01*
X79110498Y-64644180D01*
X79169463Y-64754494D01*
X79239636Y-64840000D01*
X78485264Y-64840000D01*
X78511812Y-64752482D01*
X78524072Y-64628000D01*
X78524072Y-64128000D01*
X78511812Y-64003518D01*
X78475502Y-63883820D01*
X78416537Y-63773506D01*
X78337185Y-63676815D01*
X78277704Y-63628000D01*
X78337185Y-63579185D01*
X78416537Y-63482494D01*
X78475502Y-63372180D01*
X78511812Y-63252482D01*
X78524072Y-63128000D01*
X78524072Y-62628000D01*
X78511812Y-62503518D01*
X78487230Y-62422481D01*
X78527937Y-62381774D01*
X78641205Y-62212256D01*
X78719226Y-62023898D01*
X78759000Y-61823939D01*
X78759000Y-61620061D01*
X78719226Y-61420102D01*
X78641205Y-61231744D01*
X78527937Y-61062226D01*
X78383774Y-60918063D01*
X78214256Y-60804795D01*
X78093000Y-60754569D01*
X78093000Y-60569589D01*
X78039775Y-60302011D01*
X77935371Y-60049957D01*
X77783799Y-59823114D01*
X77590886Y-59630201D01*
X77397090Y-59500710D01*
X78261003Y-58636797D01*
X78290001Y-58612999D01*
X78384974Y-58497274D01*
X78455546Y-58365245D01*
X78499003Y-58221984D01*
X78510000Y-58110331D01*
X78513677Y-58072998D01*
X78510000Y-58035665D01*
X78510000Y-57600000D01*
X79861928Y-57600000D01*
X79861928Y-58900000D01*
X79874188Y-59024482D01*
X79910498Y-59144180D01*
X79969463Y-59254494D01*
X80048815Y-59351185D01*
X80145506Y-59430537D01*
X80255820Y-59489502D01*
X80375518Y-59525812D01*
X80500000Y-59538072D01*
X81571061Y-59538072D01*
X81504774Y-59698102D01*
X81465000Y-59898061D01*
X81465000Y-60101939D01*
X81504774Y-60301898D01*
X81582795Y-60490256D01*
X81696063Y-60659774D01*
X81840226Y-60803937D01*
X82009744Y-60917205D01*
X82198102Y-60995226D01*
X82398061Y-61035000D01*
X82601939Y-61035000D01*
X82801898Y-60995226D01*
X82990256Y-60917205D01*
X83159774Y-60803937D01*
X83303937Y-60659774D01*
X83417205Y-60490256D01*
X83495226Y-60301898D01*
X83535000Y-60101939D01*
X83535000Y-59898061D01*
X83495226Y-59698102D01*
X83417205Y-59509744D01*
X83303937Y-59340226D01*
X83260000Y-59296289D01*
X83260000Y-59287333D01*
X83263677Y-59250000D01*
X83249003Y-59101014D01*
X83205546Y-58957753D01*
X83138072Y-58831520D01*
X83138072Y-57600000D01*
X83125812Y-57475518D01*
X83089502Y-57355820D01*
X83030537Y-57245506D01*
X82951185Y-57148815D01*
X82854494Y-57069463D01*
X82744180Y-57010498D01*
X82624482Y-56974188D01*
X82500000Y-56961928D01*
X80500000Y-56961928D01*
X80375518Y-56974188D01*
X80255820Y-57010498D01*
X80145506Y-57069463D01*
X80048815Y-57148815D01*
X79969463Y-57245506D01*
X79910498Y-57355820D01*
X79874188Y-57475518D01*
X79861928Y-57600000D01*
X78510000Y-57600000D01*
X78510000Y-56927909D01*
X78632886Y-56845799D01*
X78825799Y-56652886D01*
X78977371Y-56426043D01*
X79081775Y-56173989D01*
X79135000Y-55906411D01*
X79135000Y-55633589D01*
X79081775Y-55366011D01*
X78977371Y-55113957D01*
X78825799Y-54887114D01*
X78632886Y-54694201D01*
X78406043Y-54542629D01*
X78306721Y-54501489D01*
X78348832Y-54486277D01*
X78461863Y-54425860D01*
X78527388Y-54186993D01*
X77750000Y-53409605D01*
X76972612Y-54186993D01*
X77038137Y-54425860D01*
X77196477Y-54500164D01*
X77093957Y-54542629D01*
X76867114Y-54694201D01*
X76674201Y-54887114D01*
X76522629Y-55113957D01*
X76518566Y-55123765D01*
X75747056Y-54352254D01*
X75840986Y-54343003D01*
X75984247Y-54299546D01*
X76116276Y-54228974D01*
X76232001Y-54134001D01*
X76255804Y-54104997D01*
X76507045Y-53853756D01*
X76554140Y-53941863D01*
X76793007Y-54007388D01*
X77570395Y-53230000D01*
X77929605Y-53230000D01*
X78706993Y-54007388D01*
X78945860Y-53941863D01*
X79061760Y-53694884D01*
X79127250Y-53430040D01*
X79139812Y-53157508D01*
X79098965Y-52887762D01*
X79006277Y-52631168D01*
X78945860Y-52518137D01*
X78706993Y-52452612D01*
X77929605Y-53230000D01*
X77570395Y-53230000D01*
X77556253Y-53215858D01*
X77735858Y-53036253D01*
X77750000Y-53050395D01*
X78527388Y-52273007D01*
X78461863Y-52034140D01*
X78369844Y-51990958D01*
X79759009Y-50601794D01*
X79788001Y-50578001D01*
X79811795Y-50549008D01*
X79811799Y-50549004D01*
X79869811Y-50478315D01*
X79882974Y-50462276D01*
X79917113Y-50398408D01*
X80234793Y-50716088D01*
X80699124Y-51026344D01*
X81215061Y-51240052D01*
X81762777Y-51349000D01*
X82321223Y-51349000D01*
X82868939Y-51240052D01*
X83384876Y-51026344D01*
X83849207Y-50716088D01*
X84244088Y-50321207D01*
X84340000Y-50177664D01*
X84340001Y-64840000D01*
X84340001Y-64840000D01*
G37*
X84340001Y-64840000D02*
X83760364Y-64840000D01*
X83830537Y-64754494D01*
X83889502Y-64644180D01*
X83925812Y-64524482D01*
X83938072Y-64400000D01*
X83935000Y-64035750D01*
X83776250Y-63877000D01*
X82777000Y-63877000D01*
X82777000Y-63897000D01*
X82523000Y-63897000D01*
X82523000Y-63877000D01*
X82503000Y-63877000D01*
X82503000Y-63623000D01*
X82523000Y-63623000D01*
X82523000Y-62623750D01*
X82777000Y-62623750D01*
X82777000Y-63623000D01*
X83776250Y-63623000D01*
X83935000Y-63464250D01*
X83938072Y-63100000D01*
X83925812Y-62975518D01*
X83889502Y-62855820D01*
X83830537Y-62745506D01*
X83751185Y-62648815D01*
X83654494Y-62569463D01*
X83544180Y-62510498D01*
X83424482Y-62474188D01*
X83300000Y-62461928D01*
X82935750Y-62465000D01*
X82777000Y-62623750D01*
X82523000Y-62623750D01*
X82364250Y-62465000D01*
X82000000Y-62461928D01*
X81875518Y-62474188D01*
X81755820Y-62510498D01*
X81645506Y-62569463D01*
X81548815Y-62648815D01*
X81500000Y-62708296D01*
X81451185Y-62648815D01*
X81354494Y-62569463D01*
X81244180Y-62510498D01*
X81124482Y-62474188D01*
X81000000Y-62461928D01*
X80760000Y-62461928D01*
X80760000Y-62203711D01*
X80803937Y-62159774D01*
X80917205Y-61990256D01*
X80995226Y-61801898D01*
X81035000Y-61601939D01*
X81035000Y-61398061D01*
X80995226Y-61198102D01*
X80917205Y-61009744D01*
X80803937Y-60840226D01*
X80659774Y-60696063D01*
X80490256Y-60582795D01*
X80301898Y-60504774D01*
X80101939Y-60465000D01*
X79898061Y-60465000D01*
X79698102Y-60504774D01*
X79509744Y-60582795D01*
X79340226Y-60696063D01*
X79196063Y-60840226D01*
X79082795Y-61009744D01*
X79004774Y-61198102D01*
X78965000Y-61398061D01*
X78965000Y-61601939D01*
X79004774Y-61801898D01*
X79082795Y-61990256D01*
X79196063Y-62159774D01*
X79240000Y-62203711D01*
X79240001Y-62659555D01*
X79169463Y-62745506D01*
X79110498Y-62855820D01*
X79074188Y-62975518D01*
X79061928Y-63100000D01*
X79061928Y-64400000D01*
X79074188Y-64524482D01*
X79110498Y-64644180D01*
X79169463Y-64754494D01*
X79239636Y-64840000D01*
X78485264Y-64840000D01*
X78511812Y-64752482D01*
X78524072Y-64628000D01*
X78524072Y-64128000D01*
X78511812Y-64003518D01*
X78475502Y-63883820D01*
X78416537Y-63773506D01*
X78337185Y-63676815D01*
X78277704Y-63628000D01*
X78337185Y-63579185D01*
X78416537Y-63482494D01*
X78475502Y-63372180D01*
X78511812Y-63252482D01*
X78524072Y-63128000D01*
X78524072Y-62628000D01*
X78511812Y-62503518D01*
X78487230Y-62422481D01*
X78527937Y-62381774D01*
X78641205Y-62212256D01*
X78719226Y-62023898D01*
X78759000Y-61823939D01*
X78759000Y-61620061D01*
X78719226Y-61420102D01*
X78641205Y-61231744D01*
X78527937Y-61062226D01*
X78383774Y-60918063D01*
X78214256Y-60804795D01*
X78093000Y-60754569D01*
X78093000Y-60569589D01*
X78039775Y-60302011D01*
X77935371Y-60049957D01*
X77783799Y-59823114D01*
X77590886Y-59630201D01*
X77397090Y-59500710D01*
X78261003Y-58636797D01*
X78290001Y-58612999D01*
X78384974Y-58497274D01*
X78455546Y-58365245D01*
X78499003Y-58221984D01*
X78510000Y-58110331D01*
X78513677Y-58072998D01*
X78510000Y-58035665D01*
X78510000Y-57600000D01*
X79861928Y-57600000D01*
X79861928Y-58900000D01*
X79874188Y-59024482D01*
X79910498Y-59144180D01*
X79969463Y-59254494D01*
X80048815Y-59351185D01*
X80145506Y-59430537D01*
X80255820Y-59489502D01*
X80375518Y-59525812D01*
X80500000Y-59538072D01*
X81571061Y-59538072D01*
X81504774Y-59698102D01*
X81465000Y-59898061D01*
X81465000Y-60101939D01*
X81504774Y-60301898D01*
X81582795Y-60490256D01*
X81696063Y-60659774D01*
X81840226Y-60803937D01*
X82009744Y-60917205D01*
X82198102Y-60995226D01*
X82398061Y-61035000D01*
X82601939Y-61035000D01*
X82801898Y-60995226D01*
X82990256Y-60917205D01*
X83159774Y-60803937D01*
X83303937Y-60659774D01*
X83417205Y-60490256D01*
X83495226Y-60301898D01*
X83535000Y-60101939D01*
X83535000Y-59898061D01*
X83495226Y-59698102D01*
X83417205Y-59509744D01*
X83303937Y-59340226D01*
X83260000Y-59296289D01*
X83260000Y-59287333D01*
X83263677Y-59250000D01*
X83249003Y-59101014D01*
X83205546Y-58957753D01*
X83138072Y-58831520D01*
X83138072Y-57600000D01*
X83125812Y-57475518D01*
X83089502Y-57355820D01*
X83030537Y-57245506D01*
X82951185Y-57148815D01*
X82854494Y-57069463D01*
X82744180Y-57010498D01*
X82624482Y-56974188D01*
X82500000Y-56961928D01*
X80500000Y-56961928D01*
X80375518Y-56974188D01*
X80255820Y-57010498D01*
X80145506Y-57069463D01*
X80048815Y-57148815D01*
X79969463Y-57245506D01*
X79910498Y-57355820D01*
X79874188Y-57475518D01*
X79861928Y-57600000D01*
X78510000Y-57600000D01*
X78510000Y-56927909D01*
X78632886Y-56845799D01*
X78825799Y-56652886D01*
X78977371Y-56426043D01*
X79081775Y-56173989D01*
X79135000Y-55906411D01*
X79135000Y-55633589D01*
X79081775Y-55366011D01*
X78977371Y-55113957D01*
X78825799Y-54887114D01*
X78632886Y-54694201D01*
X78406043Y-54542629D01*
X78306721Y-54501489D01*
X78348832Y-54486277D01*
X78461863Y-54425860D01*
X78527388Y-54186993D01*
X77750000Y-53409605D01*
X76972612Y-54186993D01*
X77038137Y-54425860D01*
X77196477Y-54500164D01*
X77093957Y-54542629D01*
X76867114Y-54694201D01*
X76674201Y-54887114D01*
X76522629Y-55113957D01*
X76518566Y-55123765D01*
X75747056Y-54352254D01*
X75840986Y-54343003D01*
X75984247Y-54299546D01*
X76116276Y-54228974D01*
X76232001Y-54134001D01*
X76255804Y-54104997D01*
X76507045Y-53853756D01*
X76554140Y-53941863D01*
X76793007Y-54007388D01*
X77570395Y-53230000D01*
X77929605Y-53230000D01*
X78706993Y-54007388D01*
X78945860Y-53941863D01*
X79061760Y-53694884D01*
X79127250Y-53430040D01*
X79139812Y-53157508D01*
X79098965Y-52887762D01*
X79006277Y-52631168D01*
X78945860Y-52518137D01*
X78706993Y-52452612D01*
X77929605Y-53230000D01*
X77570395Y-53230000D01*
X77556253Y-53215858D01*
X77735858Y-53036253D01*
X77750000Y-53050395D01*
X78527388Y-52273007D01*
X78461863Y-52034140D01*
X78369844Y-51990958D01*
X79759009Y-50601794D01*
X79788001Y-50578001D01*
X79811795Y-50549008D01*
X79811799Y-50549004D01*
X79869811Y-50478315D01*
X79882974Y-50462276D01*
X79917113Y-50398408D01*
X80234793Y-50716088D01*
X80699124Y-51026344D01*
X81215061Y-51240052D01*
X81762777Y-51349000D01*
X82321223Y-51349000D01*
X82868939Y-51240052D01*
X83384876Y-51026344D01*
X83849207Y-50716088D01*
X84244088Y-50321207D01*
X84340000Y-50177664D01*
X84340001Y-64840000D01*
G36*
X70627000Y-60873000D02*
G01*
X70647000Y-60873000D01*
X70647000Y-61127000D01*
X70627000Y-61127000D01*
X70627000Y-61147000D01*
X70373000Y-61147000D01*
X70373000Y-61127000D01*
X70353000Y-61127000D01*
X70353000Y-60873000D01*
X70373000Y-60873000D01*
X70373000Y-60853000D01*
X70627000Y-60853000D01*
X70627000Y-60873000D01*
X70627000Y-60873000D01*
G37*
X70627000Y-60873000D02*
X70647000Y-60873000D01*
X70647000Y-61127000D01*
X70627000Y-61127000D01*
X70627000Y-61147000D01*
X70373000Y-61147000D01*
X70373000Y-61127000D01*
X70353000Y-61127000D01*
X70353000Y-60873000D01*
X70373000Y-60873000D01*
X70373000Y-60853000D01*
X70627000Y-60853000D01*
X70627000Y-60873000D01*
G36*
X66535750Y-58010000D02*
G01*
X66650000Y-58013072D01*
X66774482Y-58000812D01*
X66894180Y-57964502D01*
X67000000Y-57907939D01*
X67105820Y-57964502D01*
X67225518Y-58000812D01*
X67350000Y-58013072D01*
X68150000Y-58013072D01*
X68274482Y-58000812D01*
X68394180Y-57964502D01*
X68504494Y-57905537D01*
X68546370Y-57871171D01*
X70325165Y-59649967D01*
X70182391Y-59556538D01*
X70090623Y-59571708D01*
X69868616Y-59674214D01*
X69670872Y-59818062D01*
X69652962Y-59837460D01*
X69630537Y-59795506D01*
X69551185Y-59698815D01*
X69454494Y-59619463D01*
X69344180Y-59560498D01*
X69224482Y-59524188D01*
X69100000Y-59511928D01*
X67900000Y-59511928D01*
X67775518Y-59524188D01*
X67655820Y-59560498D01*
X67545506Y-59619463D01*
X67448815Y-59698815D01*
X67369844Y-59795042D01*
X66284999Y-58710198D01*
X66284999Y-58010000D01*
X66377002Y-58010000D01*
X66377002Y-57851252D01*
X66535750Y-58010000D01*
X66535750Y-58010000D01*
G37*
X66535750Y-58010000D02*
X66650000Y-58013072D01*
X66774482Y-58000812D01*
X66894180Y-57964502D01*
X67000000Y-57907939D01*
X67105820Y-57964502D01*
X67225518Y-58000812D01*
X67350000Y-58013072D01*
X68150000Y-58013072D01*
X68274482Y-58000812D01*
X68394180Y-57964502D01*
X68504494Y-57905537D01*
X68546370Y-57871171D01*
X70325165Y-59649967D01*
X70182391Y-59556538D01*
X70090623Y-59571708D01*
X69868616Y-59674214D01*
X69670872Y-59818062D01*
X69652962Y-59837460D01*
X69630537Y-59795506D01*
X69551185Y-59698815D01*
X69454494Y-59619463D01*
X69344180Y-59560498D01*
X69224482Y-59524188D01*
X69100000Y-59511928D01*
X67900000Y-59511928D01*
X67775518Y-59524188D01*
X67655820Y-59560498D01*
X67545506Y-59619463D01*
X67448815Y-59698815D01*
X67369844Y-59795042D01*
X66284999Y-58710198D01*
X66284999Y-58010000D01*
X66377002Y-58010000D01*
X66377002Y-57851252D01*
X66535750Y-58010000D01*
G36*
X66377000Y-56873000D02*
G01*
X66397000Y-56873000D01*
X66397000Y-57127000D01*
X66377000Y-57127000D01*
X66377000Y-57147000D01*
X66284999Y-57147000D01*
X66284999Y-56853000D01*
X66377000Y-56853000D01*
X66377000Y-56873000D01*
X66377000Y-56873000D01*
G37*
X66377000Y-56873000D02*
X66397000Y-56873000D01*
X66397000Y-57127000D01*
X66377000Y-57127000D01*
X66377000Y-57147000D01*
X66284999Y-57147000D01*
X66284999Y-56853000D01*
X66377000Y-56853000D01*
X66377000Y-56873000D01*
G36*
X71706819Y-51953621D02*
G01*
X71651168Y-51973723D01*
X71538137Y-52034140D01*
X71472612Y-52273007D01*
X72250000Y-53050395D01*
X72264143Y-53036253D01*
X72443748Y-53215858D01*
X72429605Y-53230000D01*
X72443748Y-53244143D01*
X72264143Y-53423748D01*
X72250000Y-53409605D01*
X71472612Y-54186993D01*
X71526086Y-54381928D01*
X71500000Y-54381928D01*
X71375518Y-54394188D01*
X71255820Y-54430498D01*
X71145506Y-54489463D01*
X71048815Y-54568815D01*
X70969463Y-54665506D01*
X70910498Y-54775820D01*
X70874188Y-54895518D01*
X70861928Y-55020000D01*
X70861928Y-55529631D01*
X70801918Y-55504774D01*
X70601959Y-55465000D01*
X70398081Y-55465000D01*
X70260000Y-55492466D01*
X70260000Y-55287323D01*
X70263676Y-55250000D01*
X70260000Y-55212677D01*
X70260000Y-55212667D01*
X70249003Y-55101014D01*
X70205546Y-54957753D01*
X70188316Y-54925518D01*
X70134974Y-54825723D01*
X70063799Y-54738997D01*
X70040001Y-54709999D01*
X70011004Y-54686202D01*
X69324801Y-54000000D01*
X70011004Y-53313798D01*
X70040001Y-53290001D01*
X70084053Y-53236324D01*
X70134974Y-53174277D01*
X70205546Y-53042247D01*
X70209273Y-53029960D01*
X70239487Y-52930356D01*
X70262835Y-52935000D01*
X70437165Y-52935000D01*
X70608145Y-52900990D01*
X70769205Y-52834277D01*
X70914155Y-52737424D01*
X70984021Y-52667558D01*
X70938240Y-52765116D01*
X70872750Y-53029960D01*
X70860188Y-53302492D01*
X70901035Y-53572238D01*
X70993723Y-53828832D01*
X71054140Y-53941863D01*
X71293007Y-54007388D01*
X72070395Y-53230000D01*
X71293007Y-52452612D01*
X71112229Y-52502202D01*
X71134277Y-52469205D01*
X71200990Y-52308145D01*
X71235000Y-52137165D01*
X71235000Y-51962835D01*
X71200990Y-51791855D01*
X71134277Y-51630795D01*
X71123724Y-51615002D01*
X71123776Y-51614974D01*
X71239501Y-51520001D01*
X71254691Y-51501492D01*
X71706819Y-51953621D01*
X71706819Y-51953621D01*
G37*
X71706819Y-51953621D02*
X71651168Y-51973723D01*
X71538137Y-52034140D01*
X71472612Y-52273007D01*
X72250000Y-53050395D01*
X72264143Y-53036253D01*
X72443748Y-53215858D01*
X72429605Y-53230000D01*
X72443748Y-53244143D01*
X72264143Y-53423748D01*
X72250000Y-53409605D01*
X71472612Y-54186993D01*
X71526086Y-54381928D01*
X71500000Y-54381928D01*
X71375518Y-54394188D01*
X71255820Y-54430498D01*
X71145506Y-54489463D01*
X71048815Y-54568815D01*
X70969463Y-54665506D01*
X70910498Y-54775820D01*
X70874188Y-54895518D01*
X70861928Y-55020000D01*
X70861928Y-55529631D01*
X70801918Y-55504774D01*
X70601959Y-55465000D01*
X70398081Y-55465000D01*
X70260000Y-55492466D01*
X70260000Y-55287323D01*
X70263676Y-55250000D01*
X70260000Y-55212677D01*
X70260000Y-55212667D01*
X70249003Y-55101014D01*
X70205546Y-54957753D01*
X70188316Y-54925518D01*
X70134974Y-54825723D01*
X70063799Y-54738997D01*
X70040001Y-54709999D01*
X70011004Y-54686202D01*
X69324801Y-54000000D01*
X70011004Y-53313798D01*
X70040001Y-53290001D01*
X70084053Y-53236324D01*
X70134974Y-53174277D01*
X70205546Y-53042247D01*
X70209273Y-53029960D01*
X70239487Y-52930356D01*
X70262835Y-52935000D01*
X70437165Y-52935000D01*
X70608145Y-52900990D01*
X70769205Y-52834277D01*
X70914155Y-52737424D01*
X70984021Y-52667558D01*
X70938240Y-52765116D01*
X70872750Y-53029960D01*
X70860188Y-53302492D01*
X70901035Y-53572238D01*
X70993723Y-53828832D01*
X71054140Y-53941863D01*
X71293007Y-54007388D01*
X72070395Y-53230000D01*
X71293007Y-52452612D01*
X71112229Y-52502202D01*
X71134277Y-52469205D01*
X71200990Y-52308145D01*
X71235000Y-52137165D01*
X71235000Y-51962835D01*
X71200990Y-51791855D01*
X71134277Y-51630795D01*
X71123724Y-51615002D01*
X71123776Y-51614974D01*
X71239501Y-51520001D01*
X71254691Y-51501492D01*
X71706819Y-51953621D01*
G36*
X66377000Y-52373000D02*
G01*
X66397000Y-52373000D01*
X66397000Y-52627000D01*
X66377000Y-52627000D01*
X66377000Y-52647000D01*
X66284999Y-52647000D01*
X66284999Y-52353000D01*
X66377000Y-52353000D01*
X66377000Y-52373000D01*
X66377000Y-52373000D01*
G37*
X66377000Y-52373000D02*
X66397000Y-52373000D01*
X66397000Y-52627000D01*
X66377000Y-52627000D01*
X66377000Y-52647000D01*
X66284999Y-52647000D01*
X66284999Y-52353000D01*
X66377000Y-52353000D01*
X66377000Y-52373000D01*
G36*
X70311428Y-46270000D02*
G01*
X70314500Y-46309250D01*
X70473250Y-46468000D01*
X71585000Y-46468000D01*
X71585000Y-46448000D01*
X71839000Y-46448000D01*
X71839000Y-46468000D01*
X71859000Y-46468000D01*
X71859000Y-46722000D01*
X71839000Y-46722000D01*
X71839000Y-46742000D01*
X71585000Y-46742000D01*
X71585000Y-46722000D01*
X70473250Y-46722000D01*
X70314500Y-46880750D01*
X70311428Y-46920000D01*
X70323688Y-47044482D01*
X70342046Y-47105000D01*
X69523488Y-47105000D01*
X69490256Y-47082795D01*
X69301898Y-47004774D01*
X69101939Y-46965000D01*
X68898061Y-46965000D01*
X68698102Y-47004774D01*
X68509744Y-47082795D01*
X68340226Y-47196063D01*
X68196063Y-47340226D01*
X68082795Y-47509744D01*
X68004774Y-47698102D01*
X67965000Y-47898061D01*
X67965000Y-48101939D01*
X68004774Y-48301898D01*
X68082795Y-48490256D01*
X68196063Y-48659774D01*
X68340226Y-48803937D01*
X68509744Y-48917205D01*
X68698102Y-48995226D01*
X68898061Y-49035000D01*
X69082534Y-49035000D01*
X69098662Y-49116082D01*
X69176683Y-49304440D01*
X69289951Y-49473958D01*
X69434114Y-49618121D01*
X69603632Y-49731389D01*
X69791990Y-49809410D01*
X69813377Y-49813664D01*
X69812813Y-49819387D01*
X68517201Y-51115000D01*
X68437322Y-51115000D01*
X68399999Y-51111324D01*
X68362676Y-51115000D01*
X68362667Y-51115000D01*
X68251014Y-51125997D01*
X68107753Y-51169454D01*
X67975724Y-51240026D01*
X67967474Y-51246797D01*
X67888996Y-51311201D01*
X67888992Y-51311205D01*
X67859999Y-51334999D01*
X67836205Y-51363992D01*
X67713270Y-51486928D01*
X67350000Y-51486928D01*
X67225518Y-51499188D01*
X67105820Y-51535498D01*
X67000000Y-51592061D01*
X66894180Y-51535498D01*
X66831009Y-51516335D01*
X66922974Y-51404276D01*
X66942326Y-51368072D01*
X67050500Y-51368072D01*
X67174982Y-51355812D01*
X67294680Y-51319502D01*
X67404994Y-51260537D01*
X67501685Y-51181185D01*
X67581037Y-51084494D01*
X67640002Y-50974180D01*
X67676312Y-50854482D01*
X67688572Y-50730000D01*
X67688572Y-50080000D01*
X67676312Y-49955518D01*
X67640002Y-49835820D01*
X67604820Y-49770000D01*
X67640002Y-49704180D01*
X67676312Y-49584482D01*
X67688572Y-49460000D01*
X67688572Y-48810000D01*
X67676312Y-48685518D01*
X67640002Y-48565820D01*
X67604820Y-48500000D01*
X67640002Y-48434180D01*
X67676312Y-48314482D01*
X67688572Y-48190000D01*
X67688572Y-47540000D01*
X67676312Y-47415518D01*
X67640002Y-47295820D01*
X67604820Y-47230000D01*
X67640002Y-47164180D01*
X67676312Y-47044482D01*
X67688572Y-46920000D01*
X67688572Y-46270000D01*
X67677738Y-46160000D01*
X70322262Y-46160000D01*
X70311428Y-46270000D01*
X70311428Y-46270000D01*
G37*
X70311428Y-46270000D02*
X70314500Y-46309250D01*
X70473250Y-46468000D01*
X71585000Y-46468000D01*
X71585000Y-46448000D01*
X71839000Y-46448000D01*
X71839000Y-46468000D01*
X71859000Y-46468000D01*
X71859000Y-46722000D01*
X71839000Y-46722000D01*
X71839000Y-46742000D01*
X71585000Y-46742000D01*
X71585000Y-46722000D01*
X70473250Y-46722000D01*
X70314500Y-46880750D01*
X70311428Y-46920000D01*
X70323688Y-47044482D01*
X70342046Y-47105000D01*
X69523488Y-47105000D01*
X69490256Y-47082795D01*
X69301898Y-47004774D01*
X69101939Y-46965000D01*
X68898061Y-46965000D01*
X68698102Y-47004774D01*
X68509744Y-47082795D01*
X68340226Y-47196063D01*
X68196063Y-47340226D01*
X68082795Y-47509744D01*
X68004774Y-47698102D01*
X67965000Y-47898061D01*
X67965000Y-48101939D01*
X68004774Y-48301898D01*
X68082795Y-48490256D01*
X68196063Y-48659774D01*
X68340226Y-48803937D01*
X68509744Y-48917205D01*
X68698102Y-48995226D01*
X68898061Y-49035000D01*
X69082534Y-49035000D01*
X69098662Y-49116082D01*
X69176683Y-49304440D01*
X69289951Y-49473958D01*
X69434114Y-49618121D01*
X69603632Y-49731389D01*
X69791990Y-49809410D01*
X69813377Y-49813664D01*
X69812813Y-49819387D01*
X68517201Y-51115000D01*
X68437322Y-51115000D01*
X68399999Y-51111324D01*
X68362676Y-51115000D01*
X68362667Y-51115000D01*
X68251014Y-51125997D01*
X68107753Y-51169454D01*
X67975724Y-51240026D01*
X67967474Y-51246797D01*
X67888996Y-51311201D01*
X67888992Y-51311205D01*
X67859999Y-51334999D01*
X67836205Y-51363992D01*
X67713270Y-51486928D01*
X67350000Y-51486928D01*
X67225518Y-51499188D01*
X67105820Y-51535498D01*
X67000000Y-51592061D01*
X66894180Y-51535498D01*
X66831009Y-51516335D01*
X66922974Y-51404276D01*
X66942326Y-51368072D01*
X67050500Y-51368072D01*
X67174982Y-51355812D01*
X67294680Y-51319502D01*
X67404994Y-51260537D01*
X67501685Y-51181185D01*
X67581037Y-51084494D01*
X67640002Y-50974180D01*
X67676312Y-50854482D01*
X67688572Y-50730000D01*
X67688572Y-50080000D01*
X67676312Y-49955518D01*
X67640002Y-49835820D01*
X67604820Y-49770000D01*
X67640002Y-49704180D01*
X67676312Y-49584482D01*
X67688572Y-49460000D01*
X67688572Y-48810000D01*
X67676312Y-48685518D01*
X67640002Y-48565820D01*
X67604820Y-48500000D01*
X67640002Y-48434180D01*
X67676312Y-48314482D01*
X67688572Y-48190000D01*
X67688572Y-47540000D01*
X67676312Y-47415518D01*
X67640002Y-47295820D01*
X67604820Y-47230000D01*
X67640002Y-47164180D01*
X67676312Y-47044482D01*
X67688572Y-46920000D01*
X67688572Y-46270000D01*
X67677738Y-46160000D01*
X70322262Y-46160000D01*
X70311428Y-46270000D01*
G36*
X74470815Y-47637185D02*
G01*
X74567506Y-47716537D01*
X74677820Y-47775502D01*
X74797518Y-47811812D01*
X74922000Y-47824072D01*
X75422000Y-47824072D01*
X75546482Y-47811812D01*
X75666180Y-47775502D01*
X75776494Y-47716537D01*
X75873185Y-47637185D01*
X75875823Y-47633970D01*
X75915506Y-47666537D01*
X76025820Y-47725502D01*
X76145518Y-47761812D01*
X76270000Y-47774072D01*
X77070000Y-47774072D01*
X77194482Y-47761812D01*
X77314180Y-47725502D01*
X77424494Y-47666537D01*
X77470000Y-47629191D01*
X77515506Y-47666537D01*
X77575271Y-47698482D01*
X77635026Y-47810276D01*
X77666806Y-47849000D01*
X77729999Y-47926001D01*
X77759002Y-47949804D01*
X78429974Y-48620776D01*
X78397000Y-48653750D01*
X78397000Y-49403000D01*
X78417000Y-49403000D01*
X78417000Y-49657000D01*
X78397000Y-49657000D01*
X78397000Y-49677000D01*
X78143000Y-49677000D01*
X78143000Y-49657000D01*
X78123000Y-49657000D01*
X78123000Y-49403000D01*
X78143000Y-49403000D01*
X78143000Y-48653750D01*
X77984250Y-48495000D01*
X77870000Y-48491928D01*
X77745518Y-48504188D01*
X77625820Y-48540498D01*
X77515506Y-48599463D01*
X77470000Y-48636809D01*
X77424494Y-48599463D01*
X77314180Y-48540498D01*
X77194482Y-48504188D01*
X77070000Y-48491928D01*
X76270000Y-48491928D01*
X76145518Y-48504188D01*
X76025820Y-48540498D01*
X75915506Y-48599463D01*
X75875823Y-48632030D01*
X75873185Y-48628815D01*
X75776494Y-48549463D01*
X75666180Y-48490498D01*
X75546482Y-48454188D01*
X75422000Y-48441928D01*
X74922000Y-48441928D01*
X74797518Y-48454188D01*
X74677820Y-48490498D01*
X74567506Y-48549463D01*
X74470815Y-48628815D01*
X74432000Y-48676111D01*
X74432000Y-47589889D01*
X74470815Y-47637185D01*
X74470815Y-47637185D01*
G37*
X74470815Y-47637185D02*
X74567506Y-47716537D01*
X74677820Y-47775502D01*
X74797518Y-47811812D01*
X74922000Y-47824072D01*
X75422000Y-47824072D01*
X75546482Y-47811812D01*
X75666180Y-47775502D01*
X75776494Y-47716537D01*
X75873185Y-47637185D01*
X75875823Y-47633970D01*
X75915506Y-47666537D01*
X76025820Y-47725502D01*
X76145518Y-47761812D01*
X76270000Y-47774072D01*
X77070000Y-47774072D01*
X77194482Y-47761812D01*
X77314180Y-47725502D01*
X77424494Y-47666537D01*
X77470000Y-47629191D01*
X77515506Y-47666537D01*
X77575271Y-47698482D01*
X77635026Y-47810276D01*
X77666806Y-47849000D01*
X77729999Y-47926001D01*
X77759002Y-47949804D01*
X78429974Y-48620776D01*
X78397000Y-48653750D01*
X78397000Y-49403000D01*
X78417000Y-49403000D01*
X78417000Y-49657000D01*
X78397000Y-49657000D01*
X78397000Y-49677000D01*
X78143000Y-49677000D01*
X78143000Y-49657000D01*
X78123000Y-49657000D01*
X78123000Y-49403000D01*
X78143000Y-49403000D01*
X78143000Y-48653750D01*
X77984250Y-48495000D01*
X77870000Y-48491928D01*
X77745518Y-48504188D01*
X77625820Y-48540498D01*
X77515506Y-48599463D01*
X77470000Y-48636809D01*
X77424494Y-48599463D01*
X77314180Y-48540498D01*
X77194482Y-48504188D01*
X77070000Y-48491928D01*
X76270000Y-48491928D01*
X76145518Y-48504188D01*
X76025820Y-48540498D01*
X75915506Y-48599463D01*
X75875823Y-48632030D01*
X75873185Y-48628815D01*
X75776494Y-48549463D01*
X75666180Y-48490498D01*
X75546482Y-48454188D01*
X75422000Y-48441928D01*
X74922000Y-48441928D01*
X74797518Y-48454188D01*
X74677820Y-48490498D01*
X74567506Y-48549463D01*
X74470815Y-48628815D01*
X74432000Y-48676111D01*
X74432000Y-47589889D01*
X74470815Y-47637185D01*
M02*
