M48
; DRILL file {KiCad (5.1.2)-1} date 07/06/2020 15:31:56
; FORMAT={3:3/ absolute / metric / suppress leading zeros}
; #@! TF.CreationDate,2020-06-07T15:31:56+02:00
; #@! TF.GenerationSoftware,Kicad,Pcbnew,(5.1.2)-1
FMAT,2
METRIC,TZ
T1C0.400
T2C0.750
T3C1.000
T4C2.200
T5C2.500
%
G90
G05
T1
X67000Y-51500
X67000Y-58500
X68775Y-55638
X69000Y-48000
X70094Y-48814
X70500Y-56500
X73406Y-51054
X73660Y-54102
X74295Y-61104
X75946Y-48006
X77724Y-61722
X80000Y-61500
X82500Y-60000
X80392Y-48514
X80875Y-47347
X80875Y-49681
X82042Y-46864
X82042Y-50164
X83209Y-47347
X83209Y-49681
X83692Y-48514
T2
X68500Y-61000
X70500Y-61000
X72500Y-61000
T3
X70350Y-52050
X72250Y-53230
X72250Y-55770
X77750Y-53230
X77750Y-55770
T4
X82042Y-48514
T5
X75000Y-52050
X75000Y-57040
T0
M30
