G04 #@! TF.GenerationSoftware,KiCad,Pcbnew,(5.1.2)-1*
G04 #@! TF.CreationDate,2020-06-07T15:31:51+02:00*
G04 #@! TF.ProjectId,ir-detector,69722d64-6574-4656-9374-6f722e6b6963,rev?*
G04 #@! TF.SameCoordinates,Original*
G04 #@! TF.FileFunction,Legend,Top*
G04 #@! TF.FilePolarity,Positive*
%FSLAX46Y46*%
G04 Gerber Fmt 4.6, Leading zero omitted, Abs format (unit mm)*
G04 Created by KiCad (PCBNEW (5.1.2)-1) date 2020-06-07 15:31:51*
%MOMM*%
%LPD*%
G04 APERTURE LIST*
%ADD10C,0.150000*%
%ADD11C,0.120000*%
%ADD12C,0.086140*%
%ADD13C,0.254000*%
%ADD14C,0.200000*%
G04 APERTURE END LIST*
D10*
X82304380Y-56594095D02*
X81304380Y-56594095D01*
X82018666Y-56260761D01*
X81304380Y-55927428D01*
X82304380Y-55927428D01*
X82304380Y-55022666D02*
X81780571Y-55022666D01*
X81685333Y-55070285D01*
X81637714Y-55165523D01*
X81637714Y-55356000D01*
X81685333Y-55451238D01*
X82256761Y-55022666D02*
X82304380Y-55117904D01*
X82304380Y-55356000D01*
X82256761Y-55451238D01*
X82161523Y-55498857D01*
X82066285Y-55498857D01*
X81971047Y-55451238D01*
X81923428Y-55356000D01*
X81923428Y-55117904D01*
X81875809Y-55022666D01*
X82304380Y-54546476D02*
X81637714Y-54546476D01*
X81828190Y-54546476D02*
X81732952Y-54498857D01*
X81685333Y-54451238D01*
X81637714Y-54356000D01*
X81637714Y-54260761D01*
X82304380Y-53927428D02*
X81304380Y-53927428D01*
X81685333Y-53927428D02*
X81637714Y-53832190D01*
X81637714Y-53641714D01*
X81685333Y-53546476D01*
X81732952Y-53498857D01*
X81828190Y-53451238D01*
X82113904Y-53451238D01*
X82209142Y-53498857D01*
X82256761Y-53546476D01*
X82304380Y-53641714D01*
X82304380Y-53832190D01*
X82256761Y-53927428D01*
X82304380Y-52879809D02*
X82256761Y-52975047D01*
X82161523Y-53022666D01*
X81304380Y-53022666D01*
X82256761Y-52117904D02*
X82304380Y-52213142D01*
X82304380Y-52403619D01*
X82256761Y-52498857D01*
X82161523Y-52546476D01*
X81780571Y-52546476D01*
X81685333Y-52498857D01*
X81637714Y-52403619D01*
X81637714Y-52213142D01*
X81685333Y-52117904D01*
X81780571Y-52070285D01*
X81875809Y-52070285D01*
X81971047Y-52546476D01*
X83430571Y-57332190D02*
X83430571Y-56998857D01*
X83954380Y-56856000D02*
X83954380Y-57332190D01*
X82954380Y-57332190D01*
X82954380Y-56856000D01*
X83287714Y-56522666D02*
X83954380Y-56284571D01*
X83287714Y-56046476D02*
X83954380Y-56284571D01*
X84192476Y-56379809D01*
X84240095Y-56427428D01*
X84287714Y-56522666D01*
X83906761Y-55284571D02*
X83954380Y-55379809D01*
X83954380Y-55570285D01*
X83906761Y-55665523D01*
X83811523Y-55713142D01*
X83430571Y-55713142D01*
X83335333Y-55665523D01*
X83287714Y-55570285D01*
X83287714Y-55379809D01*
X83335333Y-55284571D01*
X83430571Y-55236952D01*
X83525809Y-55236952D01*
X83621047Y-55713142D01*
X83287714Y-54141714D02*
X83954380Y-53903619D01*
X83287714Y-53665523D01*
X83954380Y-52760761D02*
X83954380Y-53332190D01*
X83954380Y-53046476D02*
X82954380Y-53046476D01*
X83097238Y-53141714D01*
X83192476Y-53236952D01*
X83240095Y-53332190D01*
X83859142Y-52332190D02*
X83906761Y-52284571D01*
X83954380Y-52332190D01*
X83906761Y-52379809D01*
X83859142Y-52332190D01*
X83954380Y-52332190D01*
X82954380Y-51665523D02*
X82954380Y-51570285D01*
X83002000Y-51475047D01*
X83049619Y-51427428D01*
X83144857Y-51379809D01*
X83335333Y-51332190D01*
X83573428Y-51332190D01*
X83763904Y-51379809D01*
X83859142Y-51427428D01*
X83906761Y-51475047D01*
X83954380Y-51570285D01*
X83954380Y-51665523D01*
X83906761Y-51760761D01*
X83859142Y-51808380D01*
X83763904Y-51856000D01*
X83573428Y-51903619D01*
X83335333Y-51903619D01*
X83144857Y-51856000D01*
X83049619Y-51808380D01*
X83002000Y-51760761D01*
X82954380Y-51665523D01*
X67952380Y-58690476D02*
X67952380Y-59166666D01*
X68428571Y-59214285D01*
X68380952Y-59166666D01*
X68333333Y-59071428D01*
X68333333Y-58833333D01*
X68380952Y-58738095D01*
X68428571Y-58690476D01*
X68523809Y-58642857D01*
X68761904Y-58642857D01*
X68857142Y-58690476D01*
X68904761Y-58738095D01*
X68952380Y-58833333D01*
X68952380Y-59071428D01*
X68904761Y-59166666D01*
X68857142Y-59214285D01*
X67952380Y-58357142D02*
X68952380Y-58023809D01*
X67952380Y-57690476D01*
X70000000Y-58761904D02*
X69952380Y-58857142D01*
X69952380Y-59000000D01*
X70000000Y-59142857D01*
X70095238Y-59238095D01*
X70190476Y-59285714D01*
X70380952Y-59333333D01*
X70523809Y-59333333D01*
X70714285Y-59285714D01*
X70809523Y-59238095D01*
X70904761Y-59142857D01*
X70952380Y-59000000D01*
X70952380Y-58904761D01*
X70904761Y-58761904D01*
X70857142Y-58714285D01*
X70523809Y-58714285D01*
X70523809Y-58904761D01*
X70952380Y-58285714D02*
X69952380Y-58285714D01*
X70952380Y-57714285D01*
X69952380Y-57714285D01*
X70952380Y-57238095D02*
X69952380Y-57238095D01*
X69952380Y-57000000D01*
X70000000Y-56857142D01*
X70095238Y-56761904D01*
X70190476Y-56714285D01*
X70380952Y-56666666D01*
X70523809Y-56666666D01*
X70714285Y-56714285D01*
X70809523Y-56761904D01*
X70904761Y-56857142D01*
X70952380Y-57000000D01*
X70952380Y-57238095D01*
X72952380Y-59285714D02*
X71952380Y-59285714D01*
X71952380Y-59047619D01*
X72000000Y-58904761D01*
X72095238Y-58809523D01*
X72190476Y-58761904D01*
X72380952Y-58714285D01*
X72523809Y-58714285D01*
X72714285Y-58761904D01*
X72809523Y-58809523D01*
X72904761Y-58904761D01*
X72952380Y-59047619D01*
X72952380Y-59285714D01*
X71952380Y-58095238D02*
X71952380Y-57904761D01*
X72000000Y-57809523D01*
X72095238Y-57714285D01*
X72285714Y-57666666D01*
X72619047Y-57666666D01*
X72809523Y-57714285D01*
X72904761Y-57809523D01*
X72952380Y-57904761D01*
X72952380Y-58095238D01*
X72904761Y-58190476D01*
X72809523Y-58285714D01*
X72619047Y-58333333D01*
X72285714Y-58333333D01*
X72095238Y-58285714D01*
X72000000Y-58190476D01*
X71952380Y-58095238D01*
X75946095Y-59094666D02*
X76422285Y-59094666D01*
X75850857Y-59380380D02*
X76184190Y-58380380D01*
X76517523Y-59380380D01*
X77041333Y-58380380D02*
X77231809Y-58380380D01*
X77327047Y-58428000D01*
X77422285Y-58523238D01*
X77469904Y-58713714D01*
X77469904Y-59047047D01*
X77422285Y-59237523D01*
X77327047Y-59332761D01*
X77231809Y-59380380D01*
X77041333Y-59380380D01*
X76946095Y-59332761D01*
X76850857Y-59237523D01*
X76803238Y-59047047D01*
X76803238Y-58713714D01*
X76850857Y-58523238D01*
X76946095Y-58428000D01*
X77041333Y-58380380D01*
X76136666Y-51379380D02*
X76136666Y-50379380D01*
X76517619Y-50379380D01*
X76612857Y-50427000D01*
X76660476Y-50474619D01*
X76708095Y-50569857D01*
X76708095Y-50712714D01*
X76660476Y-50807952D01*
X76612857Y-50855571D01*
X76517619Y-50903190D01*
X76136666Y-50903190D01*
X77041428Y-50379380D02*
X77279523Y-51379380D01*
X77470000Y-50665095D01*
X77660476Y-51379380D01*
X77898571Y-50379380D01*
X78850952Y-51379380D02*
X78517619Y-50903190D01*
X78279523Y-51379380D02*
X78279523Y-50379380D01*
X78660476Y-50379380D01*
X78755714Y-50427000D01*
X78803333Y-50474619D01*
X78850952Y-50569857D01*
X78850952Y-50712714D01*
X78803333Y-50807952D01*
X78755714Y-50855571D01*
X78660476Y-50903190D01*
X78279523Y-50903190D01*
X76446190Y-48537761D02*
X76589047Y-48585380D01*
X76827142Y-48585380D01*
X76922380Y-48537761D01*
X76970000Y-48490142D01*
X77017619Y-48394904D01*
X77017619Y-48299666D01*
X76970000Y-48204428D01*
X76922380Y-48156809D01*
X76827142Y-48109190D01*
X76636666Y-48061571D01*
X76541428Y-48013952D01*
X76493809Y-47966333D01*
X76446190Y-47871095D01*
X76446190Y-47775857D01*
X76493809Y-47680619D01*
X76541428Y-47633000D01*
X76636666Y-47585380D01*
X76874761Y-47585380D01*
X77017619Y-47633000D01*
X77446190Y-48585380D02*
X77446190Y-47585380D01*
X78446190Y-47633000D02*
X78350952Y-47585380D01*
X78208095Y-47585380D01*
X78065238Y-47633000D01*
X77970000Y-47728238D01*
X77922380Y-47823476D01*
X77874761Y-48013952D01*
X77874761Y-48156809D01*
X77922380Y-48347285D01*
X77970000Y-48442523D01*
X78065238Y-48537761D01*
X78208095Y-48585380D01*
X78303333Y-48585380D01*
X78446190Y-48537761D01*
X78493809Y-48490142D01*
X78493809Y-48156809D01*
X78303333Y-48156809D01*
D11*
X76756000Y-64128000D02*
X76756000Y-63128000D01*
X78116000Y-63128000D02*
X78116000Y-64128000D01*
X75256000Y-64128000D02*
X75256000Y-63128000D01*
X76616000Y-63128000D02*
X76616000Y-64128000D01*
X69000000Y-67350000D02*
X69000000Y-63000000D01*
X69000000Y-63000000D02*
X72000000Y-63000000D01*
X72000000Y-63000000D02*
X72000000Y-67350000D01*
X67700000Y-61150000D02*
X67350000Y-61150000D01*
X67350000Y-61150000D02*
X67350000Y-59550000D01*
X67350000Y-59550000D02*
X66450000Y-59550000D01*
X66450000Y-59550000D02*
X66450000Y-67350000D01*
X66450000Y-67350000D02*
X74550000Y-67350000D01*
X74550000Y-67350000D02*
X74550000Y-59550000D01*
X74550000Y-59550000D02*
X73650000Y-59550000D01*
X73650000Y-59550000D02*
X73650000Y-61150000D01*
X73650000Y-61150000D02*
X73300000Y-61150000D01*
X66450000Y-61150000D02*
X67350000Y-61150000D01*
X74550000Y-61150000D02*
X73650000Y-61150000D01*
X67200000Y-63500000D02*
X67200000Y-65100000D01*
X67200000Y-65100000D02*
X68200000Y-65100000D01*
X68200000Y-65100000D02*
X68200000Y-63500000D01*
X68200000Y-63500000D02*
X67200000Y-63500000D01*
X73800000Y-63500000D02*
X73800000Y-65100000D01*
X73800000Y-65100000D02*
X72800000Y-65100000D01*
X72800000Y-65100000D02*
X72800000Y-63500000D01*
X72800000Y-63500000D02*
X73800000Y-63500000D01*
X68200000Y-65100000D02*
X68200000Y-67350000D01*
X67700000Y-65100000D02*
X67700000Y-67350000D01*
X67700000Y-61150000D02*
X67700000Y-59950000D01*
D12*
X82617000Y-64794000D02*
G75*
G03X82703000Y-64794000I43000J0D01*
G01*
X82703000Y-64794000D02*
G75*
G03X82617000Y-64794000I-43000J0D01*
G01*
X82703000Y-64794000D02*
X82703000Y-64794000D01*
X82617000Y-64794000D02*
X82617000Y-64794000D01*
D13*
X79000000Y-58500000D02*
X80082000Y-58500000D01*
X84000000Y-58500000D02*
X82918000Y-58500000D01*
X84000000Y-58500000D02*
X84000000Y-63500000D01*
X79000000Y-63500000D02*
X79000000Y-58500000D01*
D11*
X74922000Y-50210000D02*
X73922000Y-50210000D01*
X73922000Y-48850000D02*
X74922000Y-48850000D01*
X74922000Y-47416000D02*
X73922000Y-47416000D01*
X73922000Y-46056000D02*
X74922000Y-46056000D01*
X67500000Y-54680000D02*
X66500000Y-54680000D01*
X66500000Y-53320000D02*
X67500000Y-53320000D01*
X67500000Y-56180000D02*
X66500000Y-56180000D01*
X66500000Y-54820000D02*
X67500000Y-54820000D01*
D14*
X72475000Y-51080000D02*
X70950000Y-51080000D01*
X70600000Y-46050000D02*
X70600000Y-50950000D01*
X67400000Y-46050000D02*
X70600000Y-46050000D01*
X67400000Y-50950000D02*
X67400000Y-46050000D01*
X70600000Y-50950000D02*
X67400000Y-50950000D01*
D11*
X78770000Y-50030000D02*
X78770000Y-49030000D01*
X78770000Y-49030000D02*
X76670000Y-49030000D01*
X78770000Y-50030000D02*
X76670000Y-50030000D01*
X78770000Y-47236000D02*
X78770000Y-46236000D01*
X78770000Y-46236000D02*
X76670000Y-46236000D01*
X78770000Y-47236000D02*
X76670000Y-47236000D01*
X66650000Y-51900000D02*
X67350000Y-51900000D01*
X67350000Y-53100000D02*
X66650000Y-53100000D01*
X66650000Y-56400000D02*
X67350000Y-56400000D01*
X67350000Y-57600000D02*
X66650000Y-57600000D01*
M02*
