G04 #@! TF.GenerationSoftware,KiCad,Pcbnew,(5.1.2)-1*
G04 #@! TF.CreationDate,2020-06-07T14:36:20+02:00*
G04 #@! TF.ProjectId,sensor-board,73656e73-6f72-42d6-926f-6172642e6b69,rev?*
G04 #@! TF.SameCoordinates,Original*
G04 #@! TF.FileFunction,Soldermask,Top*
G04 #@! TF.FilePolarity,Negative*
%FSLAX46Y46*%
G04 Gerber Fmt 4.6, Leading zero omitted, Abs format (unit mm)*
G04 Created by KiCad (PCBNEW (5.1.2)-1) date 2020-06-07 14:36:20*
%MOMM*%
%LPD*%
G04 APERTURE LIST*
%ADD10C,0.100000*%
G04 APERTURE END LIST*
D10*
G36*
X85127617Y-95608420D02*
G01*
X85218403Y-95635960D01*
X85250335Y-95645646D01*
X85363424Y-95706094D01*
X85462554Y-95787447D01*
X85543906Y-95886575D01*
X85604354Y-95999664D01*
X85614040Y-96031596D01*
X85641580Y-96122382D01*
X85651000Y-96218027D01*
X85651000Y-96781973D01*
X85641580Y-96877618D01*
X85614040Y-96968404D01*
X85604354Y-97000336D01*
X85543906Y-97113425D01*
X85462554Y-97212554D01*
X85363425Y-97293906D01*
X85250336Y-97354354D01*
X85218404Y-97364040D01*
X85127618Y-97391580D01*
X85000000Y-97404149D01*
X84872383Y-97391580D01*
X84781597Y-97364040D01*
X84749665Y-97354354D01*
X84636576Y-97293906D01*
X84537447Y-97212553D01*
X84456094Y-97113425D01*
X84395646Y-97000336D01*
X84385960Y-96968404D01*
X84358420Y-96877618D01*
X84349000Y-96781973D01*
X84349000Y-96218028D01*
X84358420Y-96122383D01*
X84395645Y-95999669D01*
X84395646Y-95999665D01*
X84456094Y-95886576D01*
X84537447Y-95787446D01*
X84636575Y-95706094D01*
X84749664Y-95645646D01*
X84781596Y-95635960D01*
X84872382Y-95608420D01*
X85000000Y-95595851D01*
X85127617Y-95608420D01*
X85127617Y-95608420D01*
G37*
G36*
X148127617Y-95608420D02*
G01*
X148218403Y-95635960D01*
X148250335Y-95645646D01*
X148363424Y-95706094D01*
X148462554Y-95787447D01*
X148543906Y-95886575D01*
X148604354Y-95999664D01*
X148614040Y-96031596D01*
X148641580Y-96122382D01*
X148651000Y-96218027D01*
X148651000Y-96781973D01*
X148641580Y-96877618D01*
X148614040Y-96968404D01*
X148604354Y-97000336D01*
X148543906Y-97113425D01*
X148462554Y-97212554D01*
X148363425Y-97293906D01*
X148250336Y-97354354D01*
X148218404Y-97364040D01*
X148127618Y-97391580D01*
X148000000Y-97404149D01*
X147872383Y-97391580D01*
X147781597Y-97364040D01*
X147749665Y-97354354D01*
X147636576Y-97293906D01*
X147537447Y-97212553D01*
X147456094Y-97113425D01*
X147395646Y-97000336D01*
X147385960Y-96968404D01*
X147358420Y-96877618D01*
X147349000Y-96781973D01*
X147349000Y-96218028D01*
X147358420Y-96122383D01*
X147395645Y-95999669D01*
X147395646Y-95999665D01*
X147456094Y-95886576D01*
X147537447Y-95787446D01*
X147636575Y-95706094D01*
X147749664Y-95645646D01*
X147781596Y-95635960D01*
X147872382Y-95608420D01*
X148000000Y-95595851D01*
X148127617Y-95608420D01*
X148127617Y-95608420D01*
G37*
G36*
X112127617Y-95608420D02*
G01*
X112218403Y-95635960D01*
X112250335Y-95645646D01*
X112363424Y-95706094D01*
X112462554Y-95787447D01*
X112543906Y-95886575D01*
X112604354Y-95999664D01*
X112614040Y-96031596D01*
X112641580Y-96122382D01*
X112651000Y-96218027D01*
X112651000Y-96781973D01*
X112641580Y-96877618D01*
X112614040Y-96968404D01*
X112604354Y-97000336D01*
X112543906Y-97113425D01*
X112462554Y-97212554D01*
X112363425Y-97293906D01*
X112250336Y-97354354D01*
X112218404Y-97364040D01*
X112127618Y-97391580D01*
X112000000Y-97404149D01*
X111872383Y-97391580D01*
X111781597Y-97364040D01*
X111749665Y-97354354D01*
X111636576Y-97293906D01*
X111537447Y-97212553D01*
X111456094Y-97113425D01*
X111395646Y-97000336D01*
X111385960Y-96968404D01*
X111358420Y-96877618D01*
X111349000Y-96781973D01*
X111349000Y-96218028D01*
X111358420Y-96122383D01*
X111395645Y-95999669D01*
X111395646Y-95999665D01*
X111456094Y-95886576D01*
X111537447Y-95787446D01*
X111636575Y-95706094D01*
X111749664Y-95645646D01*
X111781596Y-95635960D01*
X111872382Y-95608420D01*
X112000000Y-95595851D01*
X112127617Y-95608420D01*
X112127617Y-95608420D01*
G37*
G36*
X114127617Y-95608420D02*
G01*
X114218403Y-95635960D01*
X114250335Y-95645646D01*
X114363424Y-95706094D01*
X114462554Y-95787447D01*
X114543906Y-95886575D01*
X114604354Y-95999664D01*
X114614040Y-96031596D01*
X114641580Y-96122382D01*
X114651000Y-96218027D01*
X114651000Y-96781973D01*
X114641580Y-96877618D01*
X114614040Y-96968404D01*
X114604354Y-97000336D01*
X114543906Y-97113425D01*
X114462554Y-97212554D01*
X114363425Y-97293906D01*
X114250336Y-97354354D01*
X114218404Y-97364040D01*
X114127618Y-97391580D01*
X114000000Y-97404149D01*
X113872383Y-97391580D01*
X113781597Y-97364040D01*
X113749665Y-97354354D01*
X113636576Y-97293906D01*
X113537447Y-97212553D01*
X113456094Y-97113425D01*
X113395646Y-97000336D01*
X113385960Y-96968404D01*
X113358420Y-96877618D01*
X113349000Y-96781973D01*
X113349000Y-96218028D01*
X113358420Y-96122383D01*
X113395645Y-95999669D01*
X113395646Y-95999665D01*
X113456094Y-95886576D01*
X113537447Y-95787446D01*
X113636575Y-95706094D01*
X113749664Y-95645646D01*
X113781596Y-95635960D01*
X113872382Y-95608420D01*
X114000000Y-95595851D01*
X114127617Y-95608420D01*
X114127617Y-95608420D01*
G37*
G36*
X103127617Y-95608420D02*
G01*
X103218403Y-95635960D01*
X103250335Y-95645646D01*
X103363424Y-95706094D01*
X103462554Y-95787447D01*
X103543906Y-95886575D01*
X103604354Y-95999664D01*
X103614040Y-96031596D01*
X103641580Y-96122382D01*
X103651000Y-96218027D01*
X103651000Y-96781973D01*
X103641580Y-96877618D01*
X103614040Y-96968404D01*
X103604354Y-97000336D01*
X103543906Y-97113425D01*
X103462554Y-97212554D01*
X103363425Y-97293906D01*
X103250336Y-97354354D01*
X103218404Y-97364040D01*
X103127618Y-97391580D01*
X103000000Y-97404149D01*
X102872383Y-97391580D01*
X102781597Y-97364040D01*
X102749665Y-97354354D01*
X102636576Y-97293906D01*
X102537447Y-97212553D01*
X102456094Y-97113425D01*
X102395646Y-97000336D01*
X102385960Y-96968404D01*
X102358420Y-96877618D01*
X102349000Y-96781973D01*
X102349000Y-96218028D01*
X102358420Y-96122383D01*
X102395645Y-95999669D01*
X102395646Y-95999665D01*
X102456094Y-95886576D01*
X102537447Y-95787446D01*
X102636575Y-95706094D01*
X102749664Y-95645646D01*
X102781596Y-95635960D01*
X102872382Y-95608420D01*
X103000000Y-95595851D01*
X103127617Y-95608420D01*
X103127617Y-95608420D01*
G37*
G36*
X105127617Y-95608420D02*
G01*
X105218403Y-95635960D01*
X105250335Y-95645646D01*
X105363424Y-95706094D01*
X105462554Y-95787447D01*
X105543906Y-95886575D01*
X105604354Y-95999664D01*
X105614040Y-96031596D01*
X105641580Y-96122382D01*
X105651000Y-96218027D01*
X105651000Y-96781973D01*
X105641580Y-96877618D01*
X105614040Y-96968404D01*
X105604354Y-97000336D01*
X105543906Y-97113425D01*
X105462554Y-97212554D01*
X105363425Y-97293906D01*
X105250336Y-97354354D01*
X105218404Y-97364040D01*
X105127618Y-97391580D01*
X105000000Y-97404149D01*
X104872383Y-97391580D01*
X104781597Y-97364040D01*
X104749665Y-97354354D01*
X104636576Y-97293906D01*
X104537447Y-97212553D01*
X104456094Y-97113425D01*
X104395646Y-97000336D01*
X104385960Y-96968404D01*
X104358420Y-96877618D01*
X104349000Y-96781973D01*
X104349000Y-96218028D01*
X104358420Y-96122383D01*
X104395645Y-95999669D01*
X104395646Y-95999665D01*
X104456094Y-95886576D01*
X104537447Y-95787446D01*
X104636575Y-95706094D01*
X104749664Y-95645646D01*
X104781596Y-95635960D01*
X104872382Y-95608420D01*
X105000000Y-95595851D01*
X105127617Y-95608420D01*
X105127617Y-95608420D01*
G37*
G36*
X94127617Y-95608420D02*
G01*
X94218403Y-95635960D01*
X94250335Y-95645646D01*
X94363424Y-95706094D01*
X94462554Y-95787447D01*
X94543906Y-95886575D01*
X94604354Y-95999664D01*
X94614040Y-96031596D01*
X94641580Y-96122382D01*
X94651000Y-96218027D01*
X94651000Y-96781973D01*
X94641580Y-96877618D01*
X94614040Y-96968404D01*
X94604354Y-97000336D01*
X94543906Y-97113425D01*
X94462554Y-97212554D01*
X94363425Y-97293906D01*
X94250336Y-97354354D01*
X94218404Y-97364040D01*
X94127618Y-97391580D01*
X94000000Y-97404149D01*
X93872383Y-97391580D01*
X93781597Y-97364040D01*
X93749665Y-97354354D01*
X93636576Y-97293906D01*
X93537447Y-97212553D01*
X93456094Y-97113425D01*
X93395646Y-97000336D01*
X93385960Y-96968404D01*
X93358420Y-96877618D01*
X93349000Y-96781973D01*
X93349000Y-96218028D01*
X93358420Y-96122383D01*
X93395645Y-95999669D01*
X93395646Y-95999665D01*
X93456094Y-95886576D01*
X93537447Y-95787446D01*
X93636575Y-95706094D01*
X93749664Y-95645646D01*
X93781596Y-95635960D01*
X93872382Y-95608420D01*
X94000000Y-95595851D01*
X94127617Y-95608420D01*
X94127617Y-95608420D01*
G37*
G36*
X96127617Y-95608420D02*
G01*
X96218403Y-95635960D01*
X96250335Y-95645646D01*
X96363424Y-95706094D01*
X96462554Y-95787447D01*
X96543906Y-95886575D01*
X96604354Y-95999664D01*
X96614040Y-96031596D01*
X96641580Y-96122382D01*
X96651000Y-96218027D01*
X96651000Y-96781973D01*
X96641580Y-96877618D01*
X96614040Y-96968404D01*
X96604354Y-97000336D01*
X96543906Y-97113425D01*
X96462554Y-97212554D01*
X96363425Y-97293906D01*
X96250336Y-97354354D01*
X96218404Y-97364040D01*
X96127618Y-97391580D01*
X96000000Y-97404149D01*
X95872383Y-97391580D01*
X95781597Y-97364040D01*
X95749665Y-97354354D01*
X95636576Y-97293906D01*
X95537447Y-97212553D01*
X95456094Y-97113425D01*
X95395646Y-97000336D01*
X95385960Y-96968404D01*
X95358420Y-96877618D01*
X95349000Y-96781973D01*
X95349000Y-96218028D01*
X95358420Y-96122383D01*
X95395645Y-95999669D01*
X95395646Y-95999665D01*
X95456094Y-95886576D01*
X95537447Y-95787446D01*
X95636575Y-95706094D01*
X95749664Y-95645646D01*
X95781596Y-95635960D01*
X95872382Y-95608420D01*
X96000000Y-95595851D01*
X96127617Y-95608420D01*
X96127617Y-95608420D01*
G37*
G36*
X87127617Y-95608420D02*
G01*
X87218403Y-95635960D01*
X87250335Y-95645646D01*
X87363424Y-95706094D01*
X87462554Y-95787447D01*
X87543906Y-95886575D01*
X87604354Y-95999664D01*
X87614040Y-96031596D01*
X87641580Y-96122382D01*
X87651000Y-96218027D01*
X87651000Y-96781973D01*
X87641580Y-96877618D01*
X87614040Y-96968404D01*
X87604354Y-97000336D01*
X87543906Y-97113425D01*
X87462554Y-97212554D01*
X87363425Y-97293906D01*
X87250336Y-97354354D01*
X87218404Y-97364040D01*
X87127618Y-97391580D01*
X87000000Y-97404149D01*
X86872383Y-97391580D01*
X86781597Y-97364040D01*
X86749665Y-97354354D01*
X86636576Y-97293906D01*
X86537447Y-97212553D01*
X86456094Y-97113425D01*
X86395646Y-97000336D01*
X86385960Y-96968404D01*
X86358420Y-96877618D01*
X86349000Y-96781973D01*
X86349000Y-96218028D01*
X86358420Y-96122383D01*
X86395645Y-95999669D01*
X86395646Y-95999665D01*
X86456094Y-95886576D01*
X86537447Y-95787446D01*
X86636575Y-95706094D01*
X86749664Y-95645646D01*
X86781596Y-95635960D01*
X86872382Y-95608420D01*
X87000000Y-95595851D01*
X87127617Y-95608420D01*
X87127617Y-95608420D01*
G37*
G36*
X150127617Y-95608420D02*
G01*
X150218403Y-95635960D01*
X150250335Y-95645646D01*
X150363424Y-95706094D01*
X150462554Y-95787447D01*
X150543906Y-95886575D01*
X150604354Y-95999664D01*
X150614040Y-96031596D01*
X150641580Y-96122382D01*
X150651000Y-96218027D01*
X150651000Y-96781973D01*
X150641580Y-96877618D01*
X150614040Y-96968404D01*
X150604354Y-97000336D01*
X150543906Y-97113425D01*
X150462554Y-97212554D01*
X150363425Y-97293906D01*
X150250336Y-97354354D01*
X150218404Y-97364040D01*
X150127618Y-97391580D01*
X150000000Y-97404149D01*
X149872383Y-97391580D01*
X149781597Y-97364040D01*
X149749665Y-97354354D01*
X149636576Y-97293906D01*
X149537447Y-97212553D01*
X149456094Y-97113425D01*
X149395646Y-97000336D01*
X149385960Y-96968404D01*
X149358420Y-96877618D01*
X149349000Y-96781973D01*
X149349000Y-96218028D01*
X149358420Y-96122383D01*
X149395645Y-95999669D01*
X149395646Y-95999665D01*
X149456094Y-95886576D01*
X149537447Y-95787446D01*
X149636575Y-95706094D01*
X149749664Y-95645646D01*
X149781596Y-95635960D01*
X149872382Y-95608420D01*
X150000000Y-95595851D01*
X150127617Y-95608420D01*
X150127617Y-95608420D01*
G37*
G36*
X139127617Y-95608420D02*
G01*
X139218403Y-95635960D01*
X139250335Y-95645646D01*
X139363424Y-95706094D01*
X139462554Y-95787447D01*
X139543906Y-95886575D01*
X139604354Y-95999664D01*
X139614040Y-96031596D01*
X139641580Y-96122382D01*
X139651000Y-96218027D01*
X139651000Y-96781973D01*
X139641580Y-96877618D01*
X139614040Y-96968404D01*
X139604354Y-97000336D01*
X139543906Y-97113425D01*
X139462554Y-97212554D01*
X139363425Y-97293906D01*
X139250336Y-97354354D01*
X139218404Y-97364040D01*
X139127618Y-97391580D01*
X139000000Y-97404149D01*
X138872383Y-97391580D01*
X138781597Y-97364040D01*
X138749665Y-97354354D01*
X138636576Y-97293906D01*
X138537447Y-97212553D01*
X138456094Y-97113425D01*
X138395646Y-97000336D01*
X138385960Y-96968404D01*
X138358420Y-96877618D01*
X138349000Y-96781973D01*
X138349000Y-96218028D01*
X138358420Y-96122383D01*
X138395645Y-95999669D01*
X138395646Y-95999665D01*
X138456094Y-95886576D01*
X138537447Y-95787446D01*
X138636575Y-95706094D01*
X138749664Y-95645646D01*
X138781596Y-95635960D01*
X138872382Y-95608420D01*
X139000000Y-95595851D01*
X139127617Y-95608420D01*
X139127617Y-95608420D01*
G37*
G36*
X141127617Y-95608420D02*
G01*
X141218403Y-95635960D01*
X141250335Y-95645646D01*
X141363424Y-95706094D01*
X141462554Y-95787447D01*
X141543906Y-95886575D01*
X141604354Y-95999664D01*
X141614040Y-96031596D01*
X141641580Y-96122382D01*
X141651000Y-96218027D01*
X141651000Y-96781973D01*
X141641580Y-96877618D01*
X141614040Y-96968404D01*
X141604354Y-97000336D01*
X141543906Y-97113425D01*
X141462554Y-97212554D01*
X141363425Y-97293906D01*
X141250336Y-97354354D01*
X141218404Y-97364040D01*
X141127618Y-97391580D01*
X141000000Y-97404149D01*
X140872383Y-97391580D01*
X140781597Y-97364040D01*
X140749665Y-97354354D01*
X140636576Y-97293906D01*
X140537447Y-97212553D01*
X140456094Y-97113425D01*
X140395646Y-97000336D01*
X140385960Y-96968404D01*
X140358420Y-96877618D01*
X140349000Y-96781973D01*
X140349000Y-96218028D01*
X140358420Y-96122383D01*
X140395645Y-95999669D01*
X140395646Y-95999665D01*
X140456094Y-95886576D01*
X140537447Y-95787446D01*
X140636575Y-95706094D01*
X140749664Y-95645646D01*
X140781596Y-95635960D01*
X140872382Y-95608420D01*
X141000000Y-95595851D01*
X141127617Y-95608420D01*
X141127617Y-95608420D01*
G37*
G36*
X130127617Y-95608420D02*
G01*
X130218403Y-95635960D01*
X130250335Y-95645646D01*
X130363424Y-95706094D01*
X130462554Y-95787447D01*
X130543906Y-95886575D01*
X130604354Y-95999664D01*
X130614040Y-96031596D01*
X130641580Y-96122382D01*
X130651000Y-96218027D01*
X130651000Y-96781973D01*
X130641580Y-96877618D01*
X130614040Y-96968404D01*
X130604354Y-97000336D01*
X130543906Y-97113425D01*
X130462554Y-97212554D01*
X130363425Y-97293906D01*
X130250336Y-97354354D01*
X130218404Y-97364040D01*
X130127618Y-97391580D01*
X130000000Y-97404149D01*
X129872383Y-97391580D01*
X129781597Y-97364040D01*
X129749665Y-97354354D01*
X129636576Y-97293906D01*
X129537447Y-97212553D01*
X129456094Y-97113425D01*
X129395646Y-97000336D01*
X129385960Y-96968404D01*
X129358420Y-96877618D01*
X129349000Y-96781973D01*
X129349000Y-96218028D01*
X129358420Y-96122383D01*
X129395645Y-95999669D01*
X129395646Y-95999665D01*
X129456094Y-95886576D01*
X129537447Y-95787446D01*
X129636575Y-95706094D01*
X129749664Y-95645646D01*
X129781596Y-95635960D01*
X129872382Y-95608420D01*
X130000000Y-95595851D01*
X130127617Y-95608420D01*
X130127617Y-95608420D01*
G37*
G36*
X132127617Y-95608420D02*
G01*
X132218403Y-95635960D01*
X132250335Y-95645646D01*
X132363424Y-95706094D01*
X132462554Y-95787447D01*
X132543906Y-95886575D01*
X132604354Y-95999664D01*
X132614040Y-96031596D01*
X132641580Y-96122382D01*
X132651000Y-96218027D01*
X132651000Y-96781973D01*
X132641580Y-96877618D01*
X132614040Y-96968404D01*
X132604354Y-97000336D01*
X132543906Y-97113425D01*
X132462554Y-97212554D01*
X132363425Y-97293906D01*
X132250336Y-97354354D01*
X132218404Y-97364040D01*
X132127618Y-97391580D01*
X132000000Y-97404149D01*
X131872383Y-97391580D01*
X131781597Y-97364040D01*
X131749665Y-97354354D01*
X131636576Y-97293906D01*
X131537447Y-97212553D01*
X131456094Y-97113425D01*
X131395646Y-97000336D01*
X131385960Y-96968404D01*
X131358420Y-96877618D01*
X131349000Y-96781973D01*
X131349000Y-96218028D01*
X131358420Y-96122383D01*
X131395645Y-95999669D01*
X131395646Y-95999665D01*
X131456094Y-95886576D01*
X131537447Y-95787446D01*
X131636575Y-95706094D01*
X131749664Y-95645646D01*
X131781596Y-95635960D01*
X131872382Y-95608420D01*
X132000000Y-95595851D01*
X132127617Y-95608420D01*
X132127617Y-95608420D01*
G37*
G36*
X121127617Y-95608420D02*
G01*
X121218403Y-95635960D01*
X121250335Y-95645646D01*
X121363424Y-95706094D01*
X121462554Y-95787447D01*
X121543906Y-95886575D01*
X121604354Y-95999664D01*
X121614040Y-96031596D01*
X121641580Y-96122382D01*
X121651000Y-96218027D01*
X121651000Y-96781973D01*
X121641580Y-96877618D01*
X121614040Y-96968404D01*
X121604354Y-97000336D01*
X121543906Y-97113425D01*
X121462554Y-97212554D01*
X121363425Y-97293906D01*
X121250336Y-97354354D01*
X121218404Y-97364040D01*
X121127618Y-97391580D01*
X121000000Y-97404149D01*
X120872383Y-97391580D01*
X120781597Y-97364040D01*
X120749665Y-97354354D01*
X120636576Y-97293906D01*
X120537447Y-97212553D01*
X120456094Y-97113425D01*
X120395646Y-97000336D01*
X120385960Y-96968404D01*
X120358420Y-96877618D01*
X120349000Y-96781973D01*
X120349000Y-96218028D01*
X120358420Y-96122383D01*
X120395645Y-95999669D01*
X120395646Y-95999665D01*
X120456094Y-95886576D01*
X120537447Y-95787446D01*
X120636575Y-95706094D01*
X120749664Y-95645646D01*
X120781596Y-95635960D01*
X120872382Y-95608420D01*
X121000000Y-95595851D01*
X121127617Y-95608420D01*
X121127617Y-95608420D01*
G37*
G36*
X123127617Y-95608420D02*
G01*
X123218403Y-95635960D01*
X123250335Y-95645646D01*
X123363424Y-95706094D01*
X123462554Y-95787447D01*
X123543906Y-95886575D01*
X123604354Y-95999664D01*
X123614040Y-96031596D01*
X123641580Y-96122382D01*
X123651000Y-96218027D01*
X123651000Y-96781973D01*
X123641580Y-96877618D01*
X123614040Y-96968404D01*
X123604354Y-97000336D01*
X123543906Y-97113425D01*
X123462554Y-97212554D01*
X123363425Y-97293906D01*
X123250336Y-97354354D01*
X123218404Y-97364040D01*
X123127618Y-97391580D01*
X123000000Y-97404149D01*
X122872383Y-97391580D01*
X122781597Y-97364040D01*
X122749665Y-97354354D01*
X122636576Y-97293906D01*
X122537447Y-97212553D01*
X122456094Y-97113425D01*
X122395646Y-97000336D01*
X122385960Y-96968404D01*
X122358420Y-96877618D01*
X122349000Y-96781973D01*
X122349000Y-96218028D01*
X122358420Y-96122383D01*
X122395645Y-95999669D01*
X122395646Y-95999665D01*
X122456094Y-95886576D01*
X122537447Y-95787446D01*
X122636575Y-95706094D01*
X122749664Y-95645646D01*
X122781596Y-95635960D01*
X122872382Y-95608420D01*
X123000000Y-95595851D01*
X123127617Y-95608420D01*
X123127617Y-95608420D01*
G37*
G36*
X128651000Y-97401000D02*
G01*
X127349000Y-97401000D01*
X127349000Y-95599000D01*
X128651000Y-95599000D01*
X128651000Y-97401000D01*
X128651000Y-97401000D01*
G37*
G36*
X110651000Y-97401000D02*
G01*
X109349000Y-97401000D01*
X109349000Y-95599000D01*
X110651000Y-95599000D01*
X110651000Y-97401000D01*
X110651000Y-97401000D01*
G37*
G36*
X101651000Y-97401000D02*
G01*
X100349000Y-97401000D01*
X100349000Y-95599000D01*
X101651000Y-95599000D01*
X101651000Y-97401000D01*
X101651000Y-97401000D01*
G37*
G36*
X137651000Y-97401000D02*
G01*
X136349000Y-97401000D01*
X136349000Y-95599000D01*
X137651000Y-95599000D01*
X137651000Y-97401000D01*
X137651000Y-97401000D01*
G37*
G36*
X92651000Y-97401000D02*
G01*
X91349000Y-97401000D01*
X91349000Y-95599000D01*
X92651000Y-95599000D01*
X92651000Y-97401000D01*
X92651000Y-97401000D01*
G37*
G36*
X146651000Y-97401000D02*
G01*
X145349000Y-97401000D01*
X145349000Y-95599000D01*
X146651000Y-95599000D01*
X146651000Y-97401000D01*
X146651000Y-97401000D01*
G37*
G36*
X119651000Y-97401000D02*
G01*
X118349000Y-97401000D01*
X118349000Y-95599000D01*
X119651000Y-95599000D01*
X119651000Y-97401000D01*
X119651000Y-97401000D01*
G37*
G36*
X83651000Y-97401000D02*
G01*
X82349000Y-97401000D01*
X82349000Y-95599000D01*
X83651000Y-95599000D01*
X83651000Y-97401000D01*
X83651000Y-97401000D01*
G37*
G36*
X78110443Y-93805519D02*
G01*
X78176627Y-93812037D01*
X78346466Y-93863557D01*
X78502991Y-93947222D01*
X78538729Y-93976552D01*
X78640186Y-94059814D01*
X78723448Y-94161271D01*
X78752778Y-94197009D01*
X78836443Y-94353534D01*
X78887963Y-94523373D01*
X78905359Y-94700000D01*
X78887963Y-94876627D01*
X78836443Y-95046466D01*
X78752778Y-95202991D01*
X78723448Y-95238729D01*
X78640186Y-95340186D01*
X78538729Y-95423448D01*
X78502991Y-95452778D01*
X78346466Y-95536443D01*
X78176627Y-95587963D01*
X78110442Y-95594482D01*
X78044260Y-95601000D01*
X77955740Y-95601000D01*
X77889558Y-95594482D01*
X77823373Y-95587963D01*
X77653534Y-95536443D01*
X77497009Y-95452778D01*
X77461271Y-95423448D01*
X77359814Y-95340186D01*
X77276552Y-95238729D01*
X77247222Y-95202991D01*
X77163557Y-95046466D01*
X77112037Y-94876627D01*
X77094641Y-94700000D01*
X77112037Y-94523373D01*
X77163557Y-94353534D01*
X77247222Y-94197009D01*
X77276552Y-94161271D01*
X77359814Y-94059814D01*
X77461271Y-93976552D01*
X77497009Y-93947222D01*
X77653534Y-93863557D01*
X77823373Y-93812037D01*
X77889557Y-93805519D01*
X77955740Y-93799000D01*
X78044260Y-93799000D01*
X78110443Y-93805519D01*
X78110443Y-93805519D01*
G37*
G36*
X78082242Y-91262741D02*
G01*
X78176627Y-91272037D01*
X78346466Y-91323557D01*
X78502991Y-91407222D01*
X78538729Y-91436552D01*
X78640186Y-91519814D01*
X78723448Y-91621271D01*
X78752778Y-91657009D01*
X78836443Y-91813534D01*
X78887963Y-91983373D01*
X78905359Y-92160000D01*
X78887963Y-92336627D01*
X78836443Y-92506466D01*
X78752778Y-92662991D01*
X78723448Y-92698729D01*
X78640186Y-92800186D01*
X78538729Y-92883448D01*
X78502991Y-92912778D01*
X78346466Y-92996443D01*
X78176627Y-93047963D01*
X78110442Y-93054482D01*
X78044260Y-93061000D01*
X77955740Y-93061000D01*
X77889558Y-93054482D01*
X77823373Y-93047963D01*
X77653534Y-92996443D01*
X77497009Y-92912778D01*
X77461271Y-92883448D01*
X77359814Y-92800186D01*
X77276552Y-92698729D01*
X77247222Y-92662991D01*
X77163557Y-92506466D01*
X77112037Y-92336627D01*
X77094641Y-92160000D01*
X77112037Y-91983373D01*
X77163557Y-91813534D01*
X77247222Y-91657009D01*
X77276552Y-91621271D01*
X77359814Y-91519814D01*
X77461271Y-91436552D01*
X77497009Y-91407222D01*
X77653534Y-91323557D01*
X77823373Y-91272037D01*
X77917758Y-91262741D01*
X77955740Y-91259000D01*
X78044260Y-91259000D01*
X78082242Y-91262741D01*
X78082242Y-91262741D01*
G37*
G36*
X117703496Y-85358400D02*
G01*
X117703496Y-85358401D01*
X117843503Y-85498408D01*
X117843503Y-85498407D01*
X118163116Y-85818020D01*
X118163116Y-85818021D01*
X118303122Y-85958027D01*
X118303122Y-85958026D01*
X118622735Y-86277639D01*
X118622735Y-86277640D01*
X118711117Y-86366022D01*
X118711122Y-86366028D01*
X118762741Y-86417647D01*
X118762741Y-86417646D01*
X119082354Y-86737259D01*
X119082354Y-86737260D01*
X119133973Y-86788879D01*
X119133979Y-86788884D01*
X119222361Y-86877266D01*
X119222361Y-86877265D01*
X119541974Y-87196878D01*
X119541974Y-87196879D01*
X119681980Y-87336885D01*
X119681980Y-87336884D01*
X120001593Y-87656497D01*
X120001593Y-87656498D01*
X120141600Y-87796505D01*
X120141600Y-87796504D01*
X120461213Y-88116117D01*
X119665712Y-88911618D01*
X119650172Y-88930554D01*
X119638621Y-88952165D01*
X119631508Y-88975614D01*
X119629106Y-89000000D01*
X119631508Y-89024386D01*
X119638621Y-89047835D01*
X119650172Y-89069446D01*
X119665712Y-89088382D01*
X120461213Y-89883883D01*
X119222361Y-91122735D01*
X119082354Y-91262741D01*
X118762741Y-91582354D01*
X118622735Y-91722361D01*
X117383883Y-92961213D01*
X116588382Y-92165712D01*
X116569446Y-92150172D01*
X116547835Y-92138621D01*
X116524386Y-92131508D01*
X116500000Y-92129106D01*
X116475614Y-92131508D01*
X116452165Y-92138621D01*
X116430554Y-92150172D01*
X116411618Y-92165712D01*
X115616117Y-92961213D01*
X115296504Y-92641600D01*
X115296505Y-92641600D01*
X115156498Y-92501593D01*
X115156497Y-92501593D01*
X114836884Y-92181980D01*
X114836885Y-92181980D01*
X114696879Y-92041974D01*
X114696878Y-92041974D01*
X114377265Y-91722361D01*
X114377266Y-91722361D01*
X114288884Y-91633979D01*
X114288879Y-91633973D01*
X114237260Y-91582354D01*
X114237259Y-91582354D01*
X113917646Y-91262741D01*
X113917647Y-91262741D01*
X113866028Y-91211122D01*
X113866022Y-91211117D01*
X113777640Y-91122735D01*
X113777639Y-91122735D01*
X113458026Y-90803122D01*
X113458027Y-90803122D01*
X113318021Y-90663116D01*
X113318020Y-90663116D01*
X112998407Y-90343503D01*
X112998408Y-90343503D01*
X112858401Y-90203496D01*
X112858400Y-90203496D01*
X112538787Y-89883883D01*
X113334288Y-89088382D01*
X113349828Y-89069446D01*
X113361379Y-89047835D01*
X113368492Y-89024386D01*
X113370894Y-89000000D01*
X113368492Y-88975614D01*
X113361379Y-88952165D01*
X113349828Y-88930554D01*
X113334288Y-88911618D01*
X112538787Y-88116117D01*
X112858400Y-87796504D01*
X112858401Y-87796505D01*
X112998408Y-87656498D01*
X112998407Y-87656497D01*
X113318020Y-87336884D01*
X113318021Y-87336885D01*
X113458027Y-87196879D01*
X113458026Y-87196878D01*
X113777639Y-86877265D01*
X113777640Y-86877266D01*
X113866017Y-86788888D01*
X113866028Y-86788879D01*
X113917647Y-86737260D01*
X113917646Y-86737259D01*
X114237259Y-86417646D01*
X114237260Y-86417647D01*
X114288879Y-86366028D01*
X114288888Y-86366017D01*
X114377266Y-86277640D01*
X114377265Y-86277639D01*
X114696878Y-85958026D01*
X114696879Y-85958027D01*
X114836885Y-85818021D01*
X114836884Y-85818020D01*
X115156497Y-85498407D01*
X115156498Y-85498408D01*
X115296505Y-85358401D01*
X115296504Y-85358400D01*
X115616117Y-85038787D01*
X116411618Y-85834288D01*
X116430554Y-85849828D01*
X116452165Y-85861379D01*
X116475614Y-85868492D01*
X116500000Y-85870894D01*
X116524386Y-85868492D01*
X116547835Y-85861379D01*
X116569446Y-85849828D01*
X116588382Y-85834288D01*
X117383883Y-85038787D01*
X117703496Y-85358400D01*
X117703496Y-85358400D01*
G37*
G36*
X90389943Y-86066248D02*
G01*
X90945189Y-86296238D01*
X91126888Y-86417646D01*
X91444899Y-86630134D01*
X91869866Y-87055101D01*
X91988222Y-87232233D01*
X92203762Y-87554811D01*
X92433752Y-88110057D01*
X92551000Y-88699501D01*
X92551000Y-89300499D01*
X92433752Y-89889943D01*
X92203762Y-90445189D01*
X92136021Y-90546570D01*
X91869866Y-90944899D01*
X91444899Y-91369866D01*
X91194023Y-91537496D01*
X90945189Y-91703762D01*
X90389943Y-91933752D01*
X89800499Y-92051000D01*
X89199501Y-92051000D01*
X88610057Y-91933752D01*
X88054811Y-91703762D01*
X87805977Y-91537496D01*
X87555101Y-91369866D01*
X87130134Y-90944899D01*
X86863979Y-90546570D01*
X86796238Y-90445189D01*
X86566248Y-89889943D01*
X86449000Y-89300499D01*
X86449000Y-88699501D01*
X86566248Y-88110057D01*
X86796238Y-87554811D01*
X87011778Y-87232233D01*
X87130134Y-87055101D01*
X87555101Y-86630134D01*
X87873112Y-86417646D01*
X88054811Y-86296238D01*
X88610057Y-86066248D01*
X89199501Y-85949000D01*
X89800499Y-85949000D01*
X90389943Y-86066248D01*
X90389943Y-86066248D01*
G37*
G36*
X144389943Y-86066248D02*
G01*
X144945189Y-86296238D01*
X145126888Y-86417646D01*
X145444899Y-86630134D01*
X145869866Y-87055101D01*
X145988222Y-87232233D01*
X146203762Y-87554811D01*
X146433752Y-88110057D01*
X146551000Y-88699501D01*
X146551000Y-89300499D01*
X146433752Y-89889943D01*
X146203762Y-90445189D01*
X146136021Y-90546570D01*
X145869866Y-90944899D01*
X145444899Y-91369866D01*
X145194023Y-91537496D01*
X144945189Y-91703762D01*
X144389943Y-91933752D01*
X143800499Y-92051000D01*
X143199501Y-92051000D01*
X142610057Y-91933752D01*
X142054811Y-91703762D01*
X141805977Y-91537496D01*
X141555101Y-91369866D01*
X141130134Y-90944899D01*
X140863979Y-90546570D01*
X140796238Y-90445189D01*
X140566248Y-89889943D01*
X140449000Y-89300499D01*
X140449000Y-88699501D01*
X140566248Y-88110057D01*
X140796238Y-87554811D01*
X141011778Y-87232233D01*
X141130134Y-87055101D01*
X141555101Y-86630134D01*
X141873112Y-86417646D01*
X142054811Y-86296238D01*
X142610057Y-86066248D01*
X143199501Y-85949000D01*
X143800499Y-85949000D01*
X144389943Y-86066248D01*
X144389943Y-86066248D01*
G37*
G36*
X83251000Y-90951000D02*
G01*
X82349000Y-90951000D01*
X82349000Y-90049000D01*
X83251000Y-90049000D01*
X83251000Y-90951000D01*
X83251000Y-90951000D01*
G37*
G36*
X81651000Y-90951000D02*
G01*
X80749000Y-90951000D01*
X80749000Y-90049000D01*
X81651000Y-90049000D01*
X81651000Y-90951000D01*
X81651000Y-90951000D01*
G37*
G36*
X78110442Y-88725518D02*
G01*
X78176627Y-88732037D01*
X78346466Y-88783557D01*
X78502991Y-88867222D01*
X78538729Y-88896552D01*
X78640186Y-88979814D01*
X78713621Y-89069296D01*
X78752778Y-89117009D01*
X78836443Y-89273534D01*
X78887963Y-89443373D01*
X78905359Y-89620000D01*
X78887963Y-89796627D01*
X78836443Y-89966466D01*
X78752778Y-90122991D01*
X78738827Y-90139990D01*
X78640186Y-90260186D01*
X78538729Y-90343448D01*
X78502991Y-90372778D01*
X78346466Y-90456443D01*
X78176627Y-90507963D01*
X78110443Y-90514481D01*
X78044260Y-90521000D01*
X77955740Y-90521000D01*
X77889557Y-90514481D01*
X77823373Y-90507963D01*
X77653534Y-90456443D01*
X77497009Y-90372778D01*
X77461271Y-90343448D01*
X77359814Y-90260186D01*
X77261173Y-90139990D01*
X77247222Y-90122991D01*
X77163557Y-89966466D01*
X77112037Y-89796627D01*
X77094641Y-89620000D01*
X77112037Y-89443373D01*
X77163557Y-89273534D01*
X77247222Y-89117009D01*
X77286379Y-89069296D01*
X77359814Y-88979814D01*
X77461271Y-88896552D01*
X77497009Y-88867222D01*
X77653534Y-88783557D01*
X77823373Y-88732037D01*
X77889558Y-88725518D01*
X77955740Y-88719000D01*
X78044260Y-88719000D01*
X78110442Y-88725518D01*
X78110442Y-88725518D01*
G37*
G36*
X81551000Y-89501000D02*
G01*
X80949000Y-89501000D01*
X80949000Y-88499000D01*
X81551000Y-88499000D01*
X81551000Y-89501000D01*
X81551000Y-89501000D01*
G37*
G36*
X83051000Y-89501000D02*
G01*
X82449000Y-89501000D01*
X82449000Y-88499000D01*
X83051000Y-88499000D01*
X83051000Y-89501000D01*
X83051000Y-89501000D01*
G37*
G36*
X78110442Y-86185518D02*
G01*
X78176627Y-86192037D01*
X78346466Y-86243557D01*
X78502991Y-86327222D01*
X78531147Y-86350329D01*
X78640186Y-86439814D01*
X78719427Y-86536371D01*
X78752778Y-86577009D01*
X78836443Y-86733534D01*
X78887963Y-86903373D01*
X78905359Y-87080000D01*
X78887963Y-87256627D01*
X78836443Y-87426466D01*
X78752778Y-87582991D01*
X78723448Y-87618729D01*
X78640186Y-87720186D01*
X78547191Y-87796504D01*
X78502991Y-87832778D01*
X78346466Y-87916443D01*
X78176627Y-87967963D01*
X78110443Y-87974481D01*
X78044260Y-87981000D01*
X77955740Y-87981000D01*
X77889557Y-87974481D01*
X77823373Y-87967963D01*
X77653534Y-87916443D01*
X77497009Y-87832778D01*
X77452809Y-87796504D01*
X77359814Y-87720186D01*
X77276552Y-87618729D01*
X77247222Y-87582991D01*
X77163557Y-87426466D01*
X77112037Y-87256627D01*
X77094641Y-87080000D01*
X77112037Y-86903373D01*
X77163557Y-86733534D01*
X77247222Y-86577009D01*
X77280573Y-86536371D01*
X77359814Y-86439814D01*
X77468853Y-86350329D01*
X77497009Y-86327222D01*
X77653534Y-86243557D01*
X77823373Y-86192037D01*
X77889558Y-86185518D01*
X77955740Y-86179000D01*
X78044260Y-86179000D01*
X78110442Y-86185518D01*
X78110442Y-86185518D01*
G37*
G36*
X83201000Y-87926000D02*
G01*
X82299000Y-87926000D01*
X82299000Y-87074000D01*
X83201000Y-87074000D01*
X83201000Y-87926000D01*
X83201000Y-87926000D01*
G37*
G36*
X81701000Y-87926000D02*
G01*
X80799000Y-87926000D01*
X80799000Y-87074000D01*
X81701000Y-87074000D01*
X81701000Y-87926000D01*
X81701000Y-87926000D01*
G37*
G36*
X78110443Y-83645519D02*
G01*
X78176627Y-83652037D01*
X78346466Y-83703557D01*
X78502991Y-83787222D01*
X78538729Y-83816552D01*
X78640186Y-83899814D01*
X78723448Y-84001271D01*
X78752778Y-84037009D01*
X78836443Y-84193534D01*
X78887963Y-84363373D01*
X78905359Y-84540000D01*
X78887963Y-84716627D01*
X78836443Y-84886466D01*
X78752778Y-85042991D01*
X78723448Y-85078729D01*
X78640186Y-85180186D01*
X78538729Y-85263448D01*
X78502991Y-85292778D01*
X78346466Y-85376443D01*
X78176627Y-85427963D01*
X78110442Y-85434482D01*
X78044260Y-85441000D01*
X77955740Y-85441000D01*
X77889558Y-85434482D01*
X77823373Y-85427963D01*
X77653534Y-85376443D01*
X77497009Y-85292778D01*
X77461271Y-85263448D01*
X77359814Y-85180186D01*
X77276552Y-85078729D01*
X77247222Y-85042991D01*
X77163557Y-84886466D01*
X77112037Y-84716627D01*
X77094641Y-84540000D01*
X77112037Y-84363373D01*
X77163557Y-84193534D01*
X77247222Y-84037009D01*
X77276552Y-84001271D01*
X77359814Y-83899814D01*
X77461271Y-83816552D01*
X77497009Y-83787222D01*
X77653534Y-83703557D01*
X77823373Y-83652037D01*
X77889557Y-83645519D01*
X77955740Y-83639000D01*
X78044260Y-83639000D01*
X78110443Y-83645519D01*
X78110443Y-83645519D01*
G37*
G36*
X78901000Y-82901000D02*
G01*
X77099000Y-82901000D01*
X77099000Y-81099000D01*
X78901000Y-81099000D01*
X78901000Y-82901000D01*
X78901000Y-82901000D01*
G37*
G36*
X85127618Y-80608420D02*
G01*
X85218404Y-80635960D01*
X85250336Y-80645646D01*
X85363425Y-80706094D01*
X85462554Y-80787446D01*
X85543906Y-80886575D01*
X85604354Y-80999664D01*
X85604355Y-80999668D01*
X85641580Y-81122382D01*
X85651000Y-81218027D01*
X85651000Y-81781973D01*
X85641580Y-81877618D01*
X85614040Y-81968404D01*
X85604354Y-82000336D01*
X85543906Y-82113425D01*
X85462554Y-82212553D01*
X85363424Y-82293906D01*
X85250335Y-82354354D01*
X85218403Y-82364040D01*
X85127617Y-82391580D01*
X85000000Y-82404149D01*
X84872382Y-82391580D01*
X84781596Y-82364040D01*
X84749664Y-82354354D01*
X84636575Y-82293906D01*
X84537447Y-82212554D01*
X84456094Y-82113424D01*
X84395646Y-82000335D01*
X84385960Y-81968403D01*
X84358420Y-81877617D01*
X84349000Y-81781972D01*
X84349000Y-81218027D01*
X84358420Y-81122382D01*
X84395645Y-80999668D01*
X84395646Y-80999664D01*
X84456094Y-80886575D01*
X84537447Y-80787447D01*
X84636576Y-80706094D01*
X84749665Y-80645646D01*
X84781597Y-80635960D01*
X84872383Y-80608420D01*
X85000000Y-80595851D01*
X85127618Y-80608420D01*
X85127618Y-80608420D01*
G37*
G36*
X92127618Y-80608420D02*
G01*
X92218404Y-80635960D01*
X92250336Y-80645646D01*
X92363425Y-80706094D01*
X92462554Y-80787446D01*
X92543906Y-80886575D01*
X92604354Y-80999664D01*
X92604355Y-80999668D01*
X92641580Y-81122382D01*
X92651000Y-81218027D01*
X92651000Y-81781973D01*
X92641580Y-81877618D01*
X92614040Y-81968404D01*
X92604354Y-82000336D01*
X92543906Y-82113425D01*
X92462554Y-82212553D01*
X92363424Y-82293906D01*
X92250335Y-82354354D01*
X92218403Y-82364040D01*
X92127617Y-82391580D01*
X92000000Y-82404149D01*
X91872382Y-82391580D01*
X91781596Y-82364040D01*
X91749664Y-82354354D01*
X91636575Y-82293906D01*
X91537447Y-82212554D01*
X91456094Y-82113424D01*
X91395646Y-82000335D01*
X91385960Y-81968403D01*
X91358420Y-81877617D01*
X91349000Y-81781972D01*
X91349000Y-81218027D01*
X91358420Y-81122382D01*
X91395645Y-80999668D01*
X91395646Y-80999664D01*
X91456094Y-80886575D01*
X91537447Y-80787447D01*
X91636576Y-80706094D01*
X91749665Y-80645646D01*
X91781597Y-80635960D01*
X91872383Y-80608420D01*
X92000000Y-80595851D01*
X92127618Y-80608420D01*
X92127618Y-80608420D01*
G37*
G36*
X94127618Y-80608420D02*
G01*
X94218404Y-80635960D01*
X94250336Y-80645646D01*
X94363425Y-80706094D01*
X94462554Y-80787446D01*
X94543906Y-80886575D01*
X94604354Y-80999664D01*
X94604355Y-80999668D01*
X94641580Y-81122382D01*
X94651000Y-81218027D01*
X94651000Y-81781973D01*
X94641580Y-81877618D01*
X94614040Y-81968404D01*
X94604354Y-82000336D01*
X94543906Y-82113425D01*
X94462554Y-82212553D01*
X94363424Y-82293906D01*
X94250335Y-82354354D01*
X94218403Y-82364040D01*
X94127617Y-82391580D01*
X94000000Y-82404149D01*
X93872382Y-82391580D01*
X93781596Y-82364040D01*
X93749664Y-82354354D01*
X93636575Y-82293906D01*
X93537447Y-82212554D01*
X93456094Y-82113424D01*
X93395646Y-82000335D01*
X93385960Y-81968403D01*
X93358420Y-81877617D01*
X93349000Y-81781972D01*
X93349000Y-81218027D01*
X93358420Y-81122382D01*
X93395645Y-80999668D01*
X93395646Y-80999664D01*
X93456094Y-80886575D01*
X93537447Y-80787447D01*
X93636576Y-80706094D01*
X93749665Y-80645646D01*
X93781597Y-80635960D01*
X93872383Y-80608420D01*
X94000000Y-80595851D01*
X94127618Y-80608420D01*
X94127618Y-80608420D01*
G37*
G36*
X101127618Y-80608420D02*
G01*
X101218404Y-80635960D01*
X101250336Y-80645646D01*
X101363425Y-80706094D01*
X101462554Y-80787446D01*
X101543906Y-80886575D01*
X101604354Y-80999664D01*
X101604355Y-80999668D01*
X101641580Y-81122382D01*
X101651000Y-81218027D01*
X101651000Y-81781973D01*
X101641580Y-81877618D01*
X101614040Y-81968404D01*
X101604354Y-82000336D01*
X101543906Y-82113425D01*
X101462554Y-82212553D01*
X101363424Y-82293906D01*
X101250335Y-82354354D01*
X101218403Y-82364040D01*
X101127617Y-82391580D01*
X101000000Y-82404149D01*
X100872382Y-82391580D01*
X100781596Y-82364040D01*
X100749664Y-82354354D01*
X100636575Y-82293906D01*
X100537447Y-82212554D01*
X100456094Y-82113424D01*
X100395646Y-82000335D01*
X100385960Y-81968403D01*
X100358420Y-81877617D01*
X100349000Y-81781972D01*
X100349000Y-81218027D01*
X100358420Y-81122382D01*
X100395645Y-80999668D01*
X100395646Y-80999664D01*
X100456094Y-80886575D01*
X100537447Y-80787447D01*
X100636576Y-80706094D01*
X100749665Y-80645646D01*
X100781597Y-80635960D01*
X100872383Y-80608420D01*
X101000000Y-80595851D01*
X101127618Y-80608420D01*
X101127618Y-80608420D01*
G37*
G36*
X103127618Y-80608420D02*
G01*
X103218404Y-80635960D01*
X103250336Y-80645646D01*
X103363425Y-80706094D01*
X103462554Y-80787446D01*
X103543906Y-80886575D01*
X103604354Y-80999664D01*
X103604355Y-80999668D01*
X103641580Y-81122382D01*
X103651000Y-81218027D01*
X103651000Y-81781973D01*
X103641580Y-81877618D01*
X103614040Y-81968404D01*
X103604354Y-82000336D01*
X103543906Y-82113425D01*
X103462554Y-82212553D01*
X103363424Y-82293906D01*
X103250335Y-82354354D01*
X103218403Y-82364040D01*
X103127617Y-82391580D01*
X103000000Y-82404149D01*
X102872382Y-82391580D01*
X102781596Y-82364040D01*
X102749664Y-82354354D01*
X102636575Y-82293906D01*
X102537447Y-82212554D01*
X102456094Y-82113424D01*
X102395646Y-82000335D01*
X102385960Y-81968403D01*
X102358420Y-81877617D01*
X102349000Y-81781972D01*
X102349000Y-81218027D01*
X102358420Y-81122382D01*
X102395645Y-80999668D01*
X102395646Y-80999664D01*
X102456094Y-80886575D01*
X102537447Y-80787447D01*
X102636576Y-80706094D01*
X102749665Y-80645646D01*
X102781597Y-80635960D01*
X102872383Y-80608420D01*
X103000000Y-80595851D01*
X103127618Y-80608420D01*
X103127618Y-80608420D01*
G37*
G36*
X112127618Y-80608420D02*
G01*
X112218404Y-80635960D01*
X112250336Y-80645646D01*
X112363425Y-80706094D01*
X112462554Y-80787446D01*
X112543906Y-80886575D01*
X112604354Y-80999664D01*
X112604355Y-80999668D01*
X112641580Y-81122382D01*
X112651000Y-81218027D01*
X112651000Y-81781973D01*
X112641580Y-81877618D01*
X112614040Y-81968404D01*
X112604354Y-82000336D01*
X112543906Y-82113425D01*
X112462554Y-82212553D01*
X112363424Y-82293906D01*
X112250335Y-82354354D01*
X112218403Y-82364040D01*
X112127617Y-82391580D01*
X112000000Y-82404149D01*
X111872382Y-82391580D01*
X111781596Y-82364040D01*
X111749664Y-82354354D01*
X111636575Y-82293906D01*
X111537447Y-82212554D01*
X111456094Y-82113424D01*
X111395646Y-82000335D01*
X111385960Y-81968403D01*
X111358420Y-81877617D01*
X111349000Y-81781972D01*
X111349000Y-81218027D01*
X111358420Y-81122382D01*
X111395645Y-80999668D01*
X111395646Y-80999664D01*
X111456094Y-80886575D01*
X111537447Y-80787447D01*
X111636576Y-80706094D01*
X111749665Y-80645646D01*
X111781597Y-80635960D01*
X111872383Y-80608420D01*
X112000000Y-80595851D01*
X112127618Y-80608420D01*
X112127618Y-80608420D01*
G37*
G36*
X146127618Y-80608420D02*
G01*
X146218404Y-80635960D01*
X146250336Y-80645646D01*
X146363425Y-80706094D01*
X146462554Y-80787446D01*
X146543906Y-80886575D01*
X146604354Y-80999664D01*
X146604355Y-80999668D01*
X146641580Y-81122382D01*
X146651000Y-81218027D01*
X146651000Y-81781973D01*
X146641580Y-81877618D01*
X146614040Y-81968404D01*
X146604354Y-82000336D01*
X146543906Y-82113425D01*
X146462554Y-82212553D01*
X146363424Y-82293906D01*
X146250335Y-82354354D01*
X146218403Y-82364040D01*
X146127617Y-82391580D01*
X146000000Y-82404149D01*
X145872382Y-82391580D01*
X145781596Y-82364040D01*
X145749664Y-82354354D01*
X145636575Y-82293906D01*
X145537447Y-82212554D01*
X145456094Y-82113424D01*
X145395646Y-82000335D01*
X145385960Y-81968403D01*
X145358420Y-81877617D01*
X145349000Y-81781972D01*
X145349000Y-81218027D01*
X145358420Y-81122382D01*
X145395645Y-80999668D01*
X145395646Y-80999664D01*
X145456094Y-80886575D01*
X145537447Y-80787447D01*
X145636576Y-80706094D01*
X145749665Y-80645646D01*
X145781597Y-80635960D01*
X145872383Y-80608420D01*
X146000000Y-80595851D01*
X146127618Y-80608420D01*
X146127618Y-80608420D01*
G37*
G36*
X137127618Y-80608420D02*
G01*
X137218404Y-80635960D01*
X137250336Y-80645646D01*
X137363425Y-80706094D01*
X137462554Y-80787446D01*
X137543906Y-80886575D01*
X137604354Y-80999664D01*
X137604355Y-80999668D01*
X137641580Y-81122382D01*
X137651000Y-81218027D01*
X137651000Y-81781973D01*
X137641580Y-81877618D01*
X137614040Y-81968404D01*
X137604354Y-82000336D01*
X137543906Y-82113425D01*
X137462554Y-82212553D01*
X137363424Y-82293906D01*
X137250335Y-82354354D01*
X137218403Y-82364040D01*
X137127617Y-82391580D01*
X137000000Y-82404149D01*
X136872382Y-82391580D01*
X136781596Y-82364040D01*
X136749664Y-82354354D01*
X136636575Y-82293906D01*
X136537447Y-82212554D01*
X136456094Y-82113424D01*
X136395646Y-82000335D01*
X136385960Y-81968403D01*
X136358420Y-81877617D01*
X136349000Y-81781972D01*
X136349000Y-81218027D01*
X136358420Y-81122382D01*
X136395645Y-80999668D01*
X136395646Y-80999664D01*
X136456094Y-80886575D01*
X136537447Y-80787447D01*
X136636576Y-80706094D01*
X136749665Y-80645646D01*
X136781597Y-80635960D01*
X136872383Y-80608420D01*
X137000000Y-80595851D01*
X137127618Y-80608420D01*
X137127618Y-80608420D01*
G37*
G36*
X148127618Y-80608420D02*
G01*
X148218404Y-80635960D01*
X148250336Y-80645646D01*
X148363425Y-80706094D01*
X148462554Y-80787446D01*
X148543906Y-80886575D01*
X148604354Y-80999664D01*
X148604355Y-80999668D01*
X148641580Y-81122382D01*
X148651000Y-81218027D01*
X148651000Y-81781973D01*
X148641580Y-81877618D01*
X148614040Y-81968404D01*
X148604354Y-82000336D01*
X148543906Y-82113425D01*
X148462554Y-82212553D01*
X148363424Y-82293906D01*
X148250335Y-82354354D01*
X148218403Y-82364040D01*
X148127617Y-82391580D01*
X148000000Y-82404149D01*
X147872382Y-82391580D01*
X147781596Y-82364040D01*
X147749664Y-82354354D01*
X147636575Y-82293906D01*
X147537447Y-82212554D01*
X147456094Y-82113424D01*
X147395646Y-82000335D01*
X147385960Y-81968403D01*
X147358420Y-81877617D01*
X147349000Y-81781972D01*
X147349000Y-81218027D01*
X147358420Y-81122382D01*
X147395645Y-80999668D01*
X147395646Y-80999664D01*
X147456094Y-80886575D01*
X147537447Y-80787447D01*
X147636576Y-80706094D01*
X147749665Y-80645646D01*
X147781597Y-80635960D01*
X147872383Y-80608420D01*
X148000000Y-80595851D01*
X148127618Y-80608420D01*
X148127618Y-80608420D01*
G37*
G36*
X139127618Y-80608420D02*
G01*
X139218404Y-80635960D01*
X139250336Y-80645646D01*
X139363425Y-80706094D01*
X139462554Y-80787446D01*
X139543906Y-80886575D01*
X139604354Y-80999664D01*
X139604355Y-80999668D01*
X139641580Y-81122382D01*
X139651000Y-81218027D01*
X139651000Y-81781973D01*
X139641580Y-81877618D01*
X139614040Y-81968404D01*
X139604354Y-82000336D01*
X139543906Y-82113425D01*
X139462554Y-82212553D01*
X139363424Y-82293906D01*
X139250335Y-82354354D01*
X139218403Y-82364040D01*
X139127617Y-82391580D01*
X139000000Y-82404149D01*
X138872382Y-82391580D01*
X138781596Y-82364040D01*
X138749664Y-82354354D01*
X138636575Y-82293906D01*
X138537447Y-82212554D01*
X138456094Y-82113424D01*
X138395646Y-82000335D01*
X138385960Y-81968403D01*
X138358420Y-81877617D01*
X138349000Y-81781972D01*
X138349000Y-81218027D01*
X138358420Y-81122382D01*
X138395645Y-80999668D01*
X138395646Y-80999664D01*
X138456094Y-80886575D01*
X138537447Y-80787447D01*
X138636576Y-80706094D01*
X138749665Y-80645646D01*
X138781597Y-80635960D01*
X138872383Y-80608420D01*
X139000000Y-80595851D01*
X139127618Y-80608420D01*
X139127618Y-80608420D01*
G37*
G36*
X128127618Y-80608420D02*
G01*
X128218404Y-80635960D01*
X128250336Y-80645646D01*
X128363425Y-80706094D01*
X128462554Y-80787446D01*
X128543906Y-80886575D01*
X128604354Y-80999664D01*
X128604355Y-80999668D01*
X128641580Y-81122382D01*
X128651000Y-81218027D01*
X128651000Y-81781973D01*
X128641580Y-81877618D01*
X128614040Y-81968404D01*
X128604354Y-82000336D01*
X128543906Y-82113425D01*
X128462554Y-82212553D01*
X128363424Y-82293906D01*
X128250335Y-82354354D01*
X128218403Y-82364040D01*
X128127617Y-82391580D01*
X128000000Y-82404149D01*
X127872382Y-82391580D01*
X127781596Y-82364040D01*
X127749664Y-82354354D01*
X127636575Y-82293906D01*
X127537447Y-82212554D01*
X127456094Y-82113424D01*
X127395646Y-82000335D01*
X127385960Y-81968403D01*
X127358420Y-81877617D01*
X127349000Y-81781972D01*
X127349000Y-81218027D01*
X127358420Y-81122382D01*
X127395645Y-80999668D01*
X127395646Y-80999664D01*
X127456094Y-80886575D01*
X127537447Y-80787447D01*
X127636576Y-80706094D01*
X127749665Y-80645646D01*
X127781597Y-80635960D01*
X127872383Y-80608420D01*
X128000000Y-80595851D01*
X128127618Y-80608420D01*
X128127618Y-80608420D01*
G37*
G36*
X130127618Y-80608420D02*
G01*
X130218404Y-80635960D01*
X130250336Y-80645646D01*
X130363425Y-80706094D01*
X130462554Y-80787446D01*
X130543906Y-80886575D01*
X130604354Y-80999664D01*
X130604355Y-80999668D01*
X130641580Y-81122382D01*
X130651000Y-81218027D01*
X130651000Y-81781973D01*
X130641580Y-81877618D01*
X130614040Y-81968404D01*
X130604354Y-82000336D01*
X130543906Y-82113425D01*
X130462554Y-82212553D01*
X130363424Y-82293906D01*
X130250335Y-82354354D01*
X130218403Y-82364040D01*
X130127617Y-82391580D01*
X130000000Y-82404149D01*
X129872382Y-82391580D01*
X129781596Y-82364040D01*
X129749664Y-82354354D01*
X129636575Y-82293906D01*
X129537447Y-82212554D01*
X129456094Y-82113424D01*
X129395646Y-82000335D01*
X129385960Y-81968403D01*
X129358420Y-81877617D01*
X129349000Y-81781972D01*
X129349000Y-81218027D01*
X129358420Y-81122382D01*
X129395645Y-80999668D01*
X129395646Y-80999664D01*
X129456094Y-80886575D01*
X129537447Y-80787447D01*
X129636576Y-80706094D01*
X129749665Y-80645646D01*
X129781597Y-80635960D01*
X129872383Y-80608420D01*
X130000000Y-80595851D01*
X130127618Y-80608420D01*
X130127618Y-80608420D01*
G37*
G36*
X119127618Y-80608420D02*
G01*
X119218404Y-80635960D01*
X119250336Y-80645646D01*
X119363425Y-80706094D01*
X119462554Y-80787446D01*
X119543906Y-80886575D01*
X119604354Y-80999664D01*
X119604355Y-80999668D01*
X119641580Y-81122382D01*
X119651000Y-81218027D01*
X119651000Y-81781973D01*
X119641580Y-81877618D01*
X119614040Y-81968404D01*
X119604354Y-82000336D01*
X119543906Y-82113425D01*
X119462554Y-82212553D01*
X119363424Y-82293906D01*
X119250335Y-82354354D01*
X119218403Y-82364040D01*
X119127617Y-82391580D01*
X119000000Y-82404149D01*
X118872382Y-82391580D01*
X118781596Y-82364040D01*
X118749664Y-82354354D01*
X118636575Y-82293906D01*
X118537447Y-82212554D01*
X118456094Y-82113424D01*
X118395646Y-82000335D01*
X118385960Y-81968403D01*
X118358420Y-81877617D01*
X118349000Y-81781972D01*
X118349000Y-81218027D01*
X118358420Y-81122382D01*
X118395645Y-80999668D01*
X118395646Y-80999664D01*
X118456094Y-80886575D01*
X118537447Y-80787447D01*
X118636576Y-80706094D01*
X118749665Y-80645646D01*
X118781597Y-80635960D01*
X118872383Y-80608420D01*
X119000000Y-80595851D01*
X119127618Y-80608420D01*
X119127618Y-80608420D01*
G37*
G36*
X121127618Y-80608420D02*
G01*
X121218404Y-80635960D01*
X121250336Y-80645646D01*
X121363425Y-80706094D01*
X121462554Y-80787446D01*
X121543906Y-80886575D01*
X121604354Y-80999664D01*
X121604355Y-80999668D01*
X121641580Y-81122382D01*
X121651000Y-81218027D01*
X121651000Y-81781973D01*
X121641580Y-81877618D01*
X121614040Y-81968404D01*
X121604354Y-82000336D01*
X121543906Y-82113425D01*
X121462554Y-82212553D01*
X121363424Y-82293906D01*
X121250335Y-82354354D01*
X121218403Y-82364040D01*
X121127617Y-82391580D01*
X121000000Y-82404149D01*
X120872382Y-82391580D01*
X120781596Y-82364040D01*
X120749664Y-82354354D01*
X120636575Y-82293906D01*
X120537447Y-82212554D01*
X120456094Y-82113424D01*
X120395646Y-82000335D01*
X120385960Y-81968403D01*
X120358420Y-81877617D01*
X120349000Y-81781972D01*
X120349000Y-81218027D01*
X120358420Y-81122382D01*
X120395645Y-80999668D01*
X120395646Y-80999664D01*
X120456094Y-80886575D01*
X120537447Y-80787447D01*
X120636576Y-80706094D01*
X120749665Y-80645646D01*
X120781597Y-80635960D01*
X120872383Y-80608420D01*
X121000000Y-80595851D01*
X121127618Y-80608420D01*
X121127618Y-80608420D01*
G37*
G36*
X83127618Y-80608420D02*
G01*
X83218404Y-80635960D01*
X83250336Y-80645646D01*
X83363425Y-80706094D01*
X83462554Y-80787446D01*
X83543906Y-80886575D01*
X83604354Y-80999664D01*
X83604355Y-80999668D01*
X83641580Y-81122382D01*
X83651000Y-81218027D01*
X83651000Y-81781973D01*
X83641580Y-81877618D01*
X83614040Y-81968404D01*
X83604354Y-82000336D01*
X83543906Y-82113425D01*
X83462554Y-82212553D01*
X83363424Y-82293906D01*
X83250335Y-82354354D01*
X83218403Y-82364040D01*
X83127617Y-82391580D01*
X83000000Y-82404149D01*
X82872382Y-82391580D01*
X82781596Y-82364040D01*
X82749664Y-82354354D01*
X82636575Y-82293906D01*
X82537447Y-82212554D01*
X82456094Y-82113424D01*
X82395646Y-82000335D01*
X82385960Y-81968403D01*
X82358420Y-81877617D01*
X82349000Y-81781972D01*
X82349000Y-81218027D01*
X82358420Y-81122382D01*
X82395645Y-80999668D01*
X82395646Y-80999664D01*
X82456094Y-80886575D01*
X82537447Y-80787447D01*
X82636576Y-80706094D01*
X82749665Y-80645646D01*
X82781597Y-80635960D01*
X82872383Y-80608420D01*
X83000000Y-80595851D01*
X83127618Y-80608420D01*
X83127618Y-80608420D01*
G37*
G36*
X110127618Y-80608420D02*
G01*
X110218404Y-80635960D01*
X110250336Y-80645646D01*
X110363425Y-80706094D01*
X110462554Y-80787446D01*
X110543906Y-80886575D01*
X110604354Y-80999664D01*
X110604355Y-80999668D01*
X110641580Y-81122382D01*
X110651000Y-81218027D01*
X110651000Y-81781973D01*
X110641580Y-81877618D01*
X110614040Y-81968404D01*
X110604354Y-82000336D01*
X110543906Y-82113425D01*
X110462554Y-82212553D01*
X110363424Y-82293906D01*
X110250335Y-82354354D01*
X110218403Y-82364040D01*
X110127617Y-82391580D01*
X110000000Y-82404149D01*
X109872382Y-82391580D01*
X109781596Y-82364040D01*
X109749664Y-82354354D01*
X109636575Y-82293906D01*
X109537447Y-82212554D01*
X109456094Y-82113424D01*
X109395646Y-82000335D01*
X109385960Y-81968403D01*
X109358420Y-81877617D01*
X109349000Y-81781972D01*
X109349000Y-81218027D01*
X109358420Y-81122382D01*
X109395645Y-80999668D01*
X109395646Y-80999664D01*
X109456094Y-80886575D01*
X109537447Y-80787447D01*
X109636576Y-80706094D01*
X109749665Y-80645646D01*
X109781597Y-80635960D01*
X109872383Y-80608420D01*
X110000000Y-80595851D01*
X110127618Y-80608420D01*
X110127618Y-80608420D01*
G37*
G36*
X141651000Y-82401000D02*
G01*
X140349000Y-82401000D01*
X140349000Y-80599000D01*
X141651000Y-80599000D01*
X141651000Y-82401000D01*
X141651000Y-82401000D01*
G37*
G36*
X87651000Y-82401000D02*
G01*
X86349000Y-82401000D01*
X86349000Y-80599000D01*
X87651000Y-80599000D01*
X87651000Y-82401000D01*
X87651000Y-82401000D01*
G37*
G36*
X132651000Y-82401000D02*
G01*
X131349000Y-82401000D01*
X131349000Y-80599000D01*
X132651000Y-80599000D01*
X132651000Y-82401000D01*
X132651000Y-82401000D01*
G37*
G36*
X123651000Y-82401000D02*
G01*
X122349000Y-82401000D01*
X122349000Y-80599000D01*
X123651000Y-80599000D01*
X123651000Y-82401000D01*
X123651000Y-82401000D01*
G37*
G36*
X114651000Y-82401000D02*
G01*
X113349000Y-82401000D01*
X113349000Y-80599000D01*
X114651000Y-80599000D01*
X114651000Y-82401000D01*
X114651000Y-82401000D01*
G37*
G36*
X105651000Y-82401000D02*
G01*
X104349000Y-82401000D01*
X104349000Y-80599000D01*
X105651000Y-80599000D01*
X105651000Y-82401000D01*
X105651000Y-82401000D01*
G37*
G36*
X96651000Y-82401000D02*
G01*
X95349000Y-82401000D01*
X95349000Y-80599000D01*
X96651000Y-80599000D01*
X96651000Y-82401000D01*
X96651000Y-82401000D01*
G37*
G36*
X150651000Y-82401000D02*
G01*
X149349000Y-82401000D01*
X149349000Y-80599000D01*
X150651000Y-80599000D01*
X150651000Y-82401000D01*
X150651000Y-82401000D01*
G37*
M02*
