M48
; DRILL file {KiCad (5.1.2)-1} date 07/06/2020 14:36:25
; FORMAT={3:3/ absolute / metric / suppress leading zeros}
; #@! TF.CreationDate,2020-06-07T14:36:25+02:00
; #@! TF.GenerationSoftware,Kicad,Pcbnew,(5.1.2)-1
FMAT,2
METRIC,TZ
T1C0.400
T2C0.500
T3C0.750
T4C1.000
T5C3.000
%
G90
G05
T1
X115824Y-94361
X118000Y-93500
X119000Y-93000
X119500Y-92000
X121987Y-88013
X122000Y-90500
T2
X141250Y-89000
X141909Y-87409
X141909Y-90591
X143500Y-86750
X143500Y-91250
X145091Y-87409
X145091Y-90591
X145750Y-89000
X87250Y-89000
X87909Y-87409
X87909Y-90591
X89500Y-86750
X89500Y-91250
X91091Y-87409
X91091Y-90591
X91750Y-89000
T3
X137000Y-81500
X139000Y-81500
X141000Y-81500
X146000Y-81500
X148000Y-81500
X150000Y-81500
X128000Y-96500
X130000Y-96500
X132000Y-96500
X110000Y-96500
X112000Y-96500
X114000Y-96500
X83000Y-81500
X85000Y-81500
X87000Y-81500
X101000Y-81500
X103000Y-81500
X105000Y-81500
X119000Y-81500
X121000Y-81500
X123000Y-81500
X92000Y-96500
X94000Y-96500
X96000Y-96500
X83000Y-96500
X85000Y-96500
X87000Y-96500
X110000Y-81500
X112000Y-81500
X114000Y-81500
X128000Y-81500
X130000Y-81500
X132000Y-81500
X101000Y-96500
X103000Y-96500
X105000Y-96500
X119000Y-96500
X121000Y-96500
X123000Y-96500
X146000Y-96500
X148000Y-96500
X150000Y-96500
X137000Y-96500
X139000Y-96500
X141000Y-96500
X92000Y-81500
X94000Y-81500
X96000Y-81500
T4
X78000Y-82000
X78000Y-84540
X78000Y-87080
X78000Y-89620
X78000Y-92160
X78000Y-94700
T5
X143500Y-89000
X89500Y-89000
T0
M30
