G04 #@! TF.GenerationSoftware,KiCad,Pcbnew,(5.1.2)-1*
G04 #@! TF.CreationDate,2020-06-07T14:36:20+02:00*
G04 #@! TF.ProjectId,sensor-board,73656e73-6f72-42d6-926f-6172642e6b69,rev?*
G04 #@! TF.SameCoordinates,Original*
G04 #@! TF.FileFunction,Legend,Top*
G04 #@! TF.FilePolarity,Positive*
%FSLAX46Y46*%
G04 Gerber Fmt 4.6, Leading zero omitted, Abs format (unit mm)*
G04 Created by KiCad (PCBNEW (5.1.2)-1) date 2020-06-07 14:36:20*
%MOMM*%
%LPD*%
G04 APERTURE LIST*
%ADD10C,0.250000*%
%ADD11C,0.300000*%
%ADD12C,0.120000*%
%ADD13C,0.254000*%
%ADD14C,0.150000*%
G04 APERTURE END LIST*
D10*
X96223142Y-88455571D02*
X96223142Y-86955571D01*
X96723142Y-88027000D01*
X97223142Y-86955571D01*
X97223142Y-88455571D01*
X98580285Y-88455571D02*
X98580285Y-87669857D01*
X98508857Y-87527000D01*
X98366000Y-87455571D01*
X98080285Y-87455571D01*
X97937428Y-87527000D01*
X98580285Y-88384142D02*
X98437428Y-88455571D01*
X98080285Y-88455571D01*
X97937428Y-88384142D01*
X97866000Y-88241285D01*
X97866000Y-88098428D01*
X97937428Y-87955571D01*
X98080285Y-87884142D01*
X98437428Y-87884142D01*
X98580285Y-87812714D01*
X99294571Y-88455571D02*
X99294571Y-87455571D01*
X99294571Y-87741285D02*
X99366000Y-87598428D01*
X99437428Y-87527000D01*
X99580285Y-87455571D01*
X99723142Y-87455571D01*
X100223142Y-88455571D02*
X100223142Y-86955571D01*
X100223142Y-87527000D02*
X100366000Y-87455571D01*
X100651714Y-87455571D01*
X100794571Y-87527000D01*
X100866000Y-87598428D01*
X100937428Y-87741285D01*
X100937428Y-88169857D01*
X100866000Y-88312714D01*
X100794571Y-88384142D01*
X100651714Y-88455571D01*
X100366000Y-88455571D01*
X100223142Y-88384142D01*
X101794571Y-88455571D02*
X101651714Y-88384142D01*
X101580285Y-88241285D01*
X101580285Y-86955571D01*
X102937428Y-88384142D02*
X102794571Y-88455571D01*
X102508857Y-88455571D01*
X102366000Y-88384142D01*
X102294571Y-88241285D01*
X102294571Y-87669857D01*
X102366000Y-87527000D01*
X102508857Y-87455571D01*
X102794571Y-87455571D01*
X102937428Y-87527000D01*
X103008857Y-87669857D01*
X103008857Y-87812714D01*
X102294571Y-87955571D01*
X104794571Y-87669857D02*
X105294571Y-87669857D01*
X105508857Y-88455571D02*
X104794571Y-88455571D01*
X104794571Y-86955571D01*
X105508857Y-86955571D01*
X106008857Y-87455571D02*
X106366000Y-88455571D01*
X106723142Y-87455571D02*
X106366000Y-88455571D01*
X106223142Y-88812714D01*
X106151714Y-88884142D01*
X106008857Y-88955571D01*
X107866000Y-88384142D02*
X107723142Y-88455571D01*
X107437428Y-88455571D01*
X107294571Y-88384142D01*
X107223142Y-88241285D01*
X107223142Y-87669857D01*
X107294571Y-87527000D01*
X107437428Y-87455571D01*
X107723142Y-87455571D01*
X107866000Y-87527000D01*
X107937428Y-87669857D01*
X107937428Y-87812714D01*
X107223142Y-87955571D01*
X97901714Y-90955571D02*
X97901714Y-89455571D01*
X97901714Y-90169857D02*
X98758857Y-90169857D01*
X98758857Y-90955571D02*
X98758857Y-89455571D01*
X100116000Y-89955571D02*
X100116000Y-90955571D01*
X99473142Y-89955571D02*
X99473142Y-90741285D01*
X99544571Y-90884142D01*
X99687428Y-90955571D01*
X99901714Y-90955571D01*
X100044571Y-90884142D01*
X100116000Y-90812714D01*
X100830285Y-90955571D02*
X100830285Y-89455571D01*
X100830285Y-90027000D02*
X100973142Y-89955571D01*
X101258857Y-89955571D01*
X101401714Y-90027000D01*
X101473142Y-90098428D01*
X101544571Y-90241285D01*
X101544571Y-90669857D01*
X101473142Y-90812714D01*
X101401714Y-90884142D01*
X101258857Y-90955571D01*
X100973142Y-90955571D01*
X100830285Y-90884142D01*
X103187428Y-89955571D02*
X103544571Y-90955571D01*
X103901714Y-89955571D01*
X105258857Y-90955571D02*
X104401714Y-90955571D01*
X104830285Y-90955571D02*
X104830285Y-89455571D01*
X104687428Y-89669857D01*
X104544571Y-89812714D01*
X104401714Y-89884142D01*
X105901714Y-90812714D02*
X105973142Y-90884142D01*
X105901714Y-90955571D01*
X105830285Y-90884142D01*
X105901714Y-90812714D01*
X105901714Y-90955571D01*
X106901714Y-89455571D02*
X107044571Y-89455571D01*
X107187428Y-89527000D01*
X107258857Y-89598428D01*
X107330285Y-89741285D01*
X107401714Y-90027000D01*
X107401714Y-90384142D01*
X107330285Y-90669857D01*
X107258857Y-90812714D01*
X107187428Y-90884142D01*
X107044571Y-90955571D01*
X106901714Y-90955571D01*
X106758857Y-90884142D01*
X106687428Y-90812714D01*
X106616000Y-90669857D01*
X106544571Y-90384142D01*
X106544571Y-90027000D01*
X106616000Y-89741285D01*
X106687428Y-89598428D01*
X106758857Y-89527000D01*
X106901714Y-89455571D01*
D11*
X110178571Y-94178571D02*
X110178571Y-92678571D01*
X110750000Y-92678571D01*
X110892857Y-92750000D01*
X110964285Y-92821428D01*
X111035714Y-92964285D01*
X111035714Y-93178571D01*
X110964285Y-93321428D01*
X110892857Y-93392857D01*
X110750000Y-93464285D01*
X110178571Y-93464285D01*
X112464285Y-94178571D02*
X111607142Y-94178571D01*
X112035714Y-94178571D02*
X112035714Y-92678571D01*
X111892857Y-92892857D01*
X111750000Y-93035714D01*
X111607142Y-93107142D01*
X113750000Y-92678571D02*
X113464285Y-92678571D01*
X113321428Y-92750000D01*
X113250000Y-92821428D01*
X113107142Y-93035714D01*
X113035714Y-93321428D01*
X113035714Y-93892857D01*
X113107142Y-94035714D01*
X113178571Y-94107142D01*
X113321428Y-94178571D01*
X113607142Y-94178571D01*
X113750000Y-94107142D01*
X113821428Y-94035714D01*
X113892857Y-93892857D01*
X113892857Y-93535714D01*
X113821428Y-93392857D01*
X113750000Y-93321428D01*
X113607142Y-93250000D01*
X113321428Y-93250000D01*
X113178571Y-93321428D01*
X113107142Y-93392857D01*
X113035714Y-93535714D01*
X146178571Y-85178571D02*
X146178571Y-83678571D01*
X146750000Y-83678571D01*
X146892857Y-83750000D01*
X146964285Y-83821428D01*
X147035714Y-83964285D01*
X147035714Y-84178571D01*
X146964285Y-84321428D01*
X146892857Y-84392857D01*
X146750000Y-84464285D01*
X146178571Y-84464285D01*
X147964285Y-83678571D02*
X148107142Y-83678571D01*
X148250000Y-83750000D01*
X148321428Y-83821428D01*
X148392857Y-83964285D01*
X148464285Y-84250000D01*
X148464285Y-84607142D01*
X148392857Y-84892857D01*
X148321428Y-85035714D01*
X148250000Y-85107142D01*
X148107142Y-85178571D01*
X147964285Y-85178571D01*
X147821428Y-85107142D01*
X147750000Y-85035714D01*
X147678571Y-84892857D01*
X147607142Y-84607142D01*
X147607142Y-84250000D01*
X147678571Y-83964285D01*
X147750000Y-83821428D01*
X147821428Y-83750000D01*
X147964285Y-83678571D01*
X149821428Y-83678571D02*
X149107142Y-83678571D01*
X149035714Y-84392857D01*
X149107142Y-84321428D01*
X149250000Y-84250000D01*
X149607142Y-84250000D01*
X149750000Y-84321428D01*
X149821428Y-84392857D01*
X149892857Y-84535714D01*
X149892857Y-84892857D01*
X149821428Y-85035714D01*
X149750000Y-85107142D01*
X149607142Y-85178571D01*
X149250000Y-85178571D01*
X149107142Y-85107142D01*
X149035714Y-85035714D01*
X137178571Y-85178571D02*
X137178571Y-83678571D01*
X137750000Y-83678571D01*
X137892857Y-83750000D01*
X137964285Y-83821428D01*
X138035714Y-83964285D01*
X138035714Y-84178571D01*
X137964285Y-84321428D01*
X137892857Y-84392857D01*
X137750000Y-84464285D01*
X137178571Y-84464285D01*
X138964285Y-83678571D02*
X139107142Y-83678571D01*
X139250000Y-83750000D01*
X139321428Y-83821428D01*
X139392857Y-83964285D01*
X139464285Y-84250000D01*
X139464285Y-84607142D01*
X139392857Y-84892857D01*
X139321428Y-85035714D01*
X139250000Y-85107142D01*
X139107142Y-85178571D01*
X138964285Y-85178571D01*
X138821428Y-85107142D01*
X138750000Y-85035714D01*
X138678571Y-84892857D01*
X138607142Y-84607142D01*
X138607142Y-84250000D01*
X138678571Y-83964285D01*
X138750000Y-83821428D01*
X138821428Y-83750000D01*
X138964285Y-83678571D01*
X140750000Y-83678571D02*
X140464285Y-83678571D01*
X140321428Y-83750000D01*
X140250000Y-83821428D01*
X140107142Y-84035714D01*
X140035714Y-84321428D01*
X140035714Y-84892857D01*
X140107142Y-85035714D01*
X140178571Y-85107142D01*
X140321428Y-85178571D01*
X140607142Y-85178571D01*
X140750000Y-85107142D01*
X140821428Y-85035714D01*
X140892857Y-84892857D01*
X140892857Y-84535714D01*
X140821428Y-84392857D01*
X140750000Y-84321428D01*
X140607142Y-84250000D01*
X140321428Y-84250000D01*
X140178571Y-84321428D01*
X140107142Y-84392857D01*
X140035714Y-84535714D01*
X128178571Y-85178571D02*
X128178571Y-83678571D01*
X128750000Y-83678571D01*
X128892857Y-83750000D01*
X128964285Y-83821428D01*
X129035714Y-83964285D01*
X129035714Y-84178571D01*
X128964285Y-84321428D01*
X128892857Y-84392857D01*
X128750000Y-84464285D01*
X128178571Y-84464285D01*
X129964285Y-83678571D02*
X130107142Y-83678571D01*
X130250000Y-83750000D01*
X130321428Y-83821428D01*
X130392857Y-83964285D01*
X130464285Y-84250000D01*
X130464285Y-84607142D01*
X130392857Y-84892857D01*
X130321428Y-85035714D01*
X130250000Y-85107142D01*
X130107142Y-85178571D01*
X129964285Y-85178571D01*
X129821428Y-85107142D01*
X129750000Y-85035714D01*
X129678571Y-84892857D01*
X129607142Y-84607142D01*
X129607142Y-84250000D01*
X129678571Y-83964285D01*
X129750000Y-83821428D01*
X129821428Y-83750000D01*
X129964285Y-83678571D01*
X130964285Y-83678571D02*
X131964285Y-83678571D01*
X131321428Y-85178571D01*
X119178571Y-85178571D02*
X119178571Y-83678571D01*
X119750000Y-83678571D01*
X119892857Y-83750000D01*
X119964285Y-83821428D01*
X120035714Y-83964285D01*
X120035714Y-84178571D01*
X119964285Y-84321428D01*
X119892857Y-84392857D01*
X119750000Y-84464285D01*
X119178571Y-84464285D01*
X120964285Y-83678571D02*
X121107142Y-83678571D01*
X121250000Y-83750000D01*
X121321428Y-83821428D01*
X121392857Y-83964285D01*
X121464285Y-84250000D01*
X121464285Y-84607142D01*
X121392857Y-84892857D01*
X121321428Y-85035714D01*
X121250000Y-85107142D01*
X121107142Y-85178571D01*
X120964285Y-85178571D01*
X120821428Y-85107142D01*
X120750000Y-85035714D01*
X120678571Y-84892857D01*
X120607142Y-84607142D01*
X120607142Y-84250000D01*
X120678571Y-83964285D01*
X120750000Y-83821428D01*
X120821428Y-83750000D01*
X120964285Y-83678571D01*
X122321428Y-84321428D02*
X122178571Y-84250000D01*
X122107142Y-84178571D01*
X122035714Y-84035714D01*
X122035714Y-83964285D01*
X122107142Y-83821428D01*
X122178571Y-83750000D01*
X122321428Y-83678571D01*
X122607142Y-83678571D01*
X122750000Y-83750000D01*
X122821428Y-83821428D01*
X122892857Y-83964285D01*
X122892857Y-84035714D01*
X122821428Y-84178571D01*
X122750000Y-84250000D01*
X122607142Y-84321428D01*
X122321428Y-84321428D01*
X122178571Y-84392857D01*
X122107142Y-84464285D01*
X122035714Y-84607142D01*
X122035714Y-84892857D01*
X122107142Y-85035714D01*
X122178571Y-85107142D01*
X122321428Y-85178571D01*
X122607142Y-85178571D01*
X122750000Y-85107142D01*
X122821428Y-85035714D01*
X122892857Y-84892857D01*
X122892857Y-84607142D01*
X122821428Y-84464285D01*
X122750000Y-84392857D01*
X122607142Y-84321428D01*
X110178571Y-85178571D02*
X110178571Y-83678571D01*
X110750000Y-83678571D01*
X110892857Y-83750000D01*
X110964285Y-83821428D01*
X111035714Y-83964285D01*
X111035714Y-84178571D01*
X110964285Y-84321428D01*
X110892857Y-84392857D01*
X110750000Y-84464285D01*
X110178571Y-84464285D01*
X111964285Y-83678571D02*
X112107142Y-83678571D01*
X112250000Y-83750000D01*
X112321428Y-83821428D01*
X112392857Y-83964285D01*
X112464285Y-84250000D01*
X112464285Y-84607142D01*
X112392857Y-84892857D01*
X112321428Y-85035714D01*
X112250000Y-85107142D01*
X112107142Y-85178571D01*
X111964285Y-85178571D01*
X111821428Y-85107142D01*
X111750000Y-85035714D01*
X111678571Y-84892857D01*
X111607142Y-84607142D01*
X111607142Y-84250000D01*
X111678571Y-83964285D01*
X111750000Y-83821428D01*
X111821428Y-83750000D01*
X111964285Y-83678571D01*
X113178571Y-85178571D02*
X113464285Y-85178571D01*
X113607142Y-85107142D01*
X113678571Y-85035714D01*
X113821428Y-84821428D01*
X113892857Y-84535714D01*
X113892857Y-83964285D01*
X113821428Y-83821428D01*
X113750000Y-83750000D01*
X113607142Y-83678571D01*
X113321428Y-83678571D01*
X113178571Y-83750000D01*
X113107142Y-83821428D01*
X113035714Y-83964285D01*
X113035714Y-84321428D01*
X113107142Y-84464285D01*
X113178571Y-84535714D01*
X113321428Y-84607142D01*
X113607142Y-84607142D01*
X113750000Y-84535714D01*
X113821428Y-84464285D01*
X113892857Y-84321428D01*
X101178571Y-85178571D02*
X101178571Y-83678571D01*
X101750000Y-83678571D01*
X101892857Y-83750000D01*
X101964285Y-83821428D01*
X102035714Y-83964285D01*
X102035714Y-84178571D01*
X101964285Y-84321428D01*
X101892857Y-84392857D01*
X101750000Y-84464285D01*
X101178571Y-84464285D01*
X103464285Y-85178571D02*
X102607142Y-85178571D01*
X103035714Y-85178571D02*
X103035714Y-83678571D01*
X102892857Y-83892857D01*
X102750000Y-84035714D01*
X102607142Y-84107142D01*
X104392857Y-83678571D02*
X104535714Y-83678571D01*
X104678571Y-83750000D01*
X104750000Y-83821428D01*
X104821428Y-83964285D01*
X104892857Y-84250000D01*
X104892857Y-84607142D01*
X104821428Y-84892857D01*
X104750000Y-85035714D01*
X104678571Y-85107142D01*
X104535714Y-85178571D01*
X104392857Y-85178571D01*
X104250000Y-85107142D01*
X104178571Y-85035714D01*
X104107142Y-84892857D01*
X104035714Y-84607142D01*
X104035714Y-84250000D01*
X104107142Y-83964285D01*
X104178571Y-83821428D01*
X104250000Y-83750000D01*
X104392857Y-83678571D01*
X92178571Y-85178571D02*
X92178571Y-83678571D01*
X92750000Y-83678571D01*
X92892857Y-83750000D01*
X92964285Y-83821428D01*
X93035714Y-83964285D01*
X93035714Y-84178571D01*
X92964285Y-84321428D01*
X92892857Y-84392857D01*
X92750000Y-84464285D01*
X92178571Y-84464285D01*
X94464285Y-85178571D02*
X93607142Y-85178571D01*
X94035714Y-85178571D02*
X94035714Y-83678571D01*
X93892857Y-83892857D01*
X93750000Y-84035714D01*
X93607142Y-84107142D01*
X95892857Y-85178571D02*
X95035714Y-85178571D01*
X95464285Y-85178571D02*
X95464285Y-83678571D01*
X95321428Y-83892857D01*
X95178571Y-84035714D01*
X95035714Y-84107142D01*
X83178571Y-85178571D02*
X83178571Y-83678571D01*
X83750000Y-83678571D01*
X83892857Y-83750000D01*
X83964285Y-83821428D01*
X84035714Y-83964285D01*
X84035714Y-84178571D01*
X83964285Y-84321428D01*
X83892857Y-84392857D01*
X83750000Y-84464285D01*
X83178571Y-84464285D01*
X85464285Y-85178571D02*
X84607142Y-85178571D01*
X85035714Y-85178571D02*
X85035714Y-83678571D01*
X84892857Y-83892857D01*
X84750000Y-84035714D01*
X84607142Y-84107142D01*
X86035714Y-83821428D02*
X86107142Y-83750000D01*
X86250000Y-83678571D01*
X86607142Y-83678571D01*
X86750000Y-83750000D01*
X86821428Y-83821428D01*
X86892857Y-83964285D01*
X86892857Y-84107142D01*
X86821428Y-84321428D01*
X85964285Y-85178571D01*
X86892857Y-85178571D01*
X83178571Y-94178571D02*
X83178571Y-92678571D01*
X83750000Y-92678571D01*
X83892857Y-92750000D01*
X83964285Y-92821428D01*
X84035714Y-92964285D01*
X84035714Y-93178571D01*
X83964285Y-93321428D01*
X83892857Y-93392857D01*
X83750000Y-93464285D01*
X83178571Y-93464285D01*
X85464285Y-94178571D02*
X84607142Y-94178571D01*
X85035714Y-94178571D02*
X85035714Y-92678571D01*
X84892857Y-92892857D01*
X84750000Y-93035714D01*
X84607142Y-93107142D01*
X85964285Y-92678571D02*
X86892857Y-92678571D01*
X86392857Y-93250000D01*
X86607142Y-93250000D01*
X86750000Y-93321428D01*
X86821428Y-93392857D01*
X86892857Y-93535714D01*
X86892857Y-93892857D01*
X86821428Y-94035714D01*
X86750000Y-94107142D01*
X86607142Y-94178571D01*
X86178571Y-94178571D01*
X86035714Y-94107142D01*
X85964285Y-94035714D01*
X92178571Y-94178571D02*
X92178571Y-92678571D01*
X92750000Y-92678571D01*
X92892857Y-92750000D01*
X92964285Y-92821428D01*
X93035714Y-92964285D01*
X93035714Y-93178571D01*
X92964285Y-93321428D01*
X92892857Y-93392857D01*
X92750000Y-93464285D01*
X92178571Y-93464285D01*
X94464285Y-94178571D02*
X93607142Y-94178571D01*
X94035714Y-94178571D02*
X94035714Y-92678571D01*
X93892857Y-92892857D01*
X93750000Y-93035714D01*
X93607142Y-93107142D01*
X95750000Y-93178571D02*
X95750000Y-94178571D01*
X95392857Y-92607142D02*
X95035714Y-93678571D01*
X95964285Y-93678571D01*
X101178571Y-94178571D02*
X101178571Y-92678571D01*
X101750000Y-92678571D01*
X101892857Y-92750000D01*
X101964285Y-92821428D01*
X102035714Y-92964285D01*
X102035714Y-93178571D01*
X101964285Y-93321428D01*
X101892857Y-93392857D01*
X101750000Y-93464285D01*
X101178571Y-93464285D01*
X103464285Y-94178571D02*
X102607142Y-94178571D01*
X103035714Y-94178571D02*
X103035714Y-92678571D01*
X102892857Y-92892857D01*
X102750000Y-93035714D01*
X102607142Y-93107142D01*
X104821428Y-92678571D02*
X104107142Y-92678571D01*
X104035714Y-93392857D01*
X104107142Y-93321428D01*
X104250000Y-93250000D01*
X104607142Y-93250000D01*
X104750000Y-93321428D01*
X104821428Y-93392857D01*
X104892857Y-93535714D01*
X104892857Y-93892857D01*
X104821428Y-94035714D01*
X104750000Y-94107142D01*
X104607142Y-94178571D01*
X104250000Y-94178571D01*
X104107142Y-94107142D01*
X104035714Y-94035714D01*
X146178571Y-94178571D02*
X146178571Y-92678571D01*
X146750000Y-92678571D01*
X146892857Y-92750000D01*
X146964285Y-92821428D01*
X147035714Y-92964285D01*
X147035714Y-93178571D01*
X146964285Y-93321428D01*
X146892857Y-93392857D01*
X146750000Y-93464285D01*
X146178571Y-93464285D01*
X147964285Y-92678571D02*
X148107142Y-92678571D01*
X148250000Y-92750000D01*
X148321428Y-92821428D01*
X148392857Y-92964285D01*
X148464285Y-93250000D01*
X148464285Y-93607142D01*
X148392857Y-93892857D01*
X148321428Y-94035714D01*
X148250000Y-94107142D01*
X148107142Y-94178571D01*
X147964285Y-94178571D01*
X147821428Y-94107142D01*
X147750000Y-94035714D01*
X147678571Y-93892857D01*
X147607142Y-93607142D01*
X147607142Y-93250000D01*
X147678571Y-92964285D01*
X147750000Y-92821428D01*
X147821428Y-92750000D01*
X147964285Y-92678571D01*
X149750000Y-93178571D02*
X149750000Y-94178571D01*
X149392857Y-92607142D02*
X149035714Y-93678571D01*
X149964285Y-93678571D01*
X137178571Y-94178571D02*
X137178571Y-92678571D01*
X137750000Y-92678571D01*
X137892857Y-92750000D01*
X137964285Y-92821428D01*
X138035714Y-92964285D01*
X138035714Y-93178571D01*
X137964285Y-93321428D01*
X137892857Y-93392857D01*
X137750000Y-93464285D01*
X137178571Y-93464285D01*
X138964285Y-92678571D02*
X139107142Y-92678571D01*
X139250000Y-92750000D01*
X139321428Y-92821428D01*
X139392857Y-92964285D01*
X139464285Y-93250000D01*
X139464285Y-93607142D01*
X139392857Y-93892857D01*
X139321428Y-94035714D01*
X139250000Y-94107142D01*
X139107142Y-94178571D01*
X138964285Y-94178571D01*
X138821428Y-94107142D01*
X138750000Y-94035714D01*
X138678571Y-93892857D01*
X138607142Y-93607142D01*
X138607142Y-93250000D01*
X138678571Y-92964285D01*
X138750000Y-92821428D01*
X138821428Y-92750000D01*
X138964285Y-92678571D01*
X139964285Y-92678571D02*
X140892857Y-92678571D01*
X140392857Y-93250000D01*
X140607142Y-93250000D01*
X140750000Y-93321428D01*
X140821428Y-93392857D01*
X140892857Y-93535714D01*
X140892857Y-93892857D01*
X140821428Y-94035714D01*
X140750000Y-94107142D01*
X140607142Y-94178571D01*
X140178571Y-94178571D01*
X140035714Y-94107142D01*
X139964285Y-94035714D01*
X128178571Y-94178571D02*
X128178571Y-92678571D01*
X128750000Y-92678571D01*
X128892857Y-92750000D01*
X128964285Y-92821428D01*
X129035714Y-92964285D01*
X129035714Y-93178571D01*
X128964285Y-93321428D01*
X128892857Y-93392857D01*
X128750000Y-93464285D01*
X128178571Y-93464285D01*
X129964285Y-92678571D02*
X130107142Y-92678571D01*
X130250000Y-92750000D01*
X130321428Y-92821428D01*
X130392857Y-92964285D01*
X130464285Y-93250000D01*
X130464285Y-93607142D01*
X130392857Y-93892857D01*
X130321428Y-94035714D01*
X130250000Y-94107142D01*
X130107142Y-94178571D01*
X129964285Y-94178571D01*
X129821428Y-94107142D01*
X129750000Y-94035714D01*
X129678571Y-93892857D01*
X129607142Y-93607142D01*
X129607142Y-93250000D01*
X129678571Y-92964285D01*
X129750000Y-92821428D01*
X129821428Y-92750000D01*
X129964285Y-92678571D01*
X131035714Y-92821428D02*
X131107142Y-92750000D01*
X131250000Y-92678571D01*
X131607142Y-92678571D01*
X131750000Y-92750000D01*
X131821428Y-92821428D01*
X131892857Y-92964285D01*
X131892857Y-93107142D01*
X131821428Y-93321428D01*
X130964285Y-94178571D01*
X131892857Y-94178571D01*
X119178571Y-94178571D02*
X119178571Y-92678571D01*
X119750000Y-92678571D01*
X119892857Y-92750000D01*
X119964285Y-92821428D01*
X120035714Y-92964285D01*
X120035714Y-93178571D01*
X119964285Y-93321428D01*
X119892857Y-93392857D01*
X119750000Y-93464285D01*
X119178571Y-93464285D01*
X120964285Y-92678571D02*
X121107142Y-92678571D01*
X121250000Y-92750000D01*
X121321428Y-92821428D01*
X121392857Y-92964285D01*
X121464285Y-93250000D01*
X121464285Y-93607142D01*
X121392857Y-93892857D01*
X121321428Y-94035714D01*
X121250000Y-94107142D01*
X121107142Y-94178571D01*
X120964285Y-94178571D01*
X120821428Y-94107142D01*
X120750000Y-94035714D01*
X120678571Y-93892857D01*
X120607142Y-93607142D01*
X120607142Y-93250000D01*
X120678571Y-92964285D01*
X120750000Y-92821428D01*
X120821428Y-92750000D01*
X120964285Y-92678571D01*
X122892857Y-94178571D02*
X122035714Y-94178571D01*
X122464285Y-94178571D02*
X122464285Y-92678571D01*
X122321428Y-92892857D01*
X122178571Y-93035714D01*
X122035714Y-93107142D01*
D12*
X78000000Y-80670000D02*
X79330000Y-80670000D01*
X79330000Y-80670000D02*
X79330000Y-82000000D01*
X79330000Y-83270000D02*
X79330000Y-96030000D01*
X76670000Y-96030000D02*
X79330000Y-96030000D01*
X76670000Y-83270000D02*
X76670000Y-96030000D01*
X76670000Y-83270000D02*
X79330000Y-83270000D01*
X86500000Y-75150000D02*
X86500000Y-79500000D01*
X86500000Y-79500000D02*
X83500000Y-79500000D01*
X83500000Y-79500000D02*
X83500000Y-75150000D01*
X87800000Y-81350000D02*
X88150000Y-81350000D01*
X88150000Y-81350000D02*
X88150000Y-82950000D01*
X88150000Y-82950000D02*
X89050000Y-82950000D01*
X89050000Y-82950000D02*
X89050000Y-75150000D01*
X89050000Y-75150000D02*
X80950000Y-75150000D01*
X80950000Y-75150000D02*
X80950000Y-82950000D01*
X80950000Y-82950000D02*
X81850000Y-82950000D01*
X81850000Y-82950000D02*
X81850000Y-81350000D01*
X81850000Y-81350000D02*
X82200000Y-81350000D01*
X89050000Y-81350000D02*
X88150000Y-81350000D01*
X80950000Y-81350000D02*
X81850000Y-81350000D01*
X88300000Y-79000000D02*
X88300000Y-77400000D01*
X88300000Y-77400000D02*
X87300000Y-77400000D01*
X87300000Y-77400000D02*
X87300000Y-79000000D01*
X87300000Y-79000000D02*
X88300000Y-79000000D01*
X81700000Y-79000000D02*
X81700000Y-77400000D01*
X81700000Y-77400000D02*
X82700000Y-77400000D01*
X82700000Y-77400000D02*
X82700000Y-79000000D01*
X82700000Y-79000000D02*
X81700000Y-79000000D01*
X87300000Y-77400000D02*
X87300000Y-75150000D01*
X87800000Y-77400000D02*
X87800000Y-75150000D01*
X87800000Y-81350000D02*
X87800000Y-82550000D01*
X80700000Y-90000000D02*
X80700000Y-91000000D01*
X80700000Y-91000000D02*
X82800000Y-91000000D01*
X80700000Y-90000000D02*
X82800000Y-90000000D01*
X81500000Y-88320000D02*
X82500000Y-88320000D01*
X82500000Y-89680000D02*
X81500000Y-89680000D01*
D13*
X112208081Y-89317844D02*
G75*
G03X112208081Y-89317844I-162500J0D01*
G01*
D12*
X110500000Y-102850000D02*
X110500000Y-98500000D01*
X110500000Y-98500000D02*
X113500000Y-98500000D01*
X113500000Y-98500000D02*
X113500000Y-102850000D01*
X109200000Y-96650000D02*
X108850000Y-96650000D01*
X108850000Y-96650000D02*
X108850000Y-95050000D01*
X108850000Y-95050000D02*
X107950000Y-95050000D01*
X107950000Y-95050000D02*
X107950000Y-102850000D01*
X107950000Y-102850000D02*
X116050000Y-102850000D01*
X116050000Y-102850000D02*
X116050000Y-95050000D01*
X116050000Y-95050000D02*
X115150000Y-95050000D01*
X115150000Y-95050000D02*
X115150000Y-96650000D01*
X115150000Y-96650000D02*
X114800000Y-96650000D01*
X107950000Y-96650000D02*
X108850000Y-96650000D01*
X116050000Y-96650000D02*
X115150000Y-96650000D01*
X108700000Y-99000000D02*
X108700000Y-100600000D01*
X108700000Y-100600000D02*
X109700000Y-100600000D01*
X109700000Y-100600000D02*
X109700000Y-99000000D01*
X109700000Y-99000000D02*
X108700000Y-99000000D01*
X115300000Y-99000000D02*
X115300000Y-100600000D01*
X115300000Y-100600000D02*
X114300000Y-100600000D01*
X114300000Y-100600000D02*
X114300000Y-99000000D01*
X114300000Y-99000000D02*
X115300000Y-99000000D01*
X109700000Y-100600000D02*
X109700000Y-102850000D01*
X109200000Y-100600000D02*
X109200000Y-102850000D01*
X109200000Y-96650000D02*
X109200000Y-95450000D01*
X101500000Y-102850000D02*
X101500000Y-98500000D01*
X101500000Y-98500000D02*
X104500000Y-98500000D01*
X104500000Y-98500000D02*
X104500000Y-102850000D01*
X100200000Y-96650000D02*
X99850000Y-96650000D01*
X99850000Y-96650000D02*
X99850000Y-95050000D01*
X99850000Y-95050000D02*
X98950000Y-95050000D01*
X98950000Y-95050000D02*
X98950000Y-102850000D01*
X98950000Y-102850000D02*
X107050000Y-102850000D01*
X107050000Y-102850000D02*
X107050000Y-95050000D01*
X107050000Y-95050000D02*
X106150000Y-95050000D01*
X106150000Y-95050000D02*
X106150000Y-96650000D01*
X106150000Y-96650000D02*
X105800000Y-96650000D01*
X98950000Y-96650000D02*
X99850000Y-96650000D01*
X107050000Y-96650000D02*
X106150000Y-96650000D01*
X99700000Y-99000000D02*
X99700000Y-100600000D01*
X99700000Y-100600000D02*
X100700000Y-100600000D01*
X100700000Y-100600000D02*
X100700000Y-99000000D01*
X100700000Y-99000000D02*
X99700000Y-99000000D01*
X106300000Y-99000000D02*
X106300000Y-100600000D01*
X106300000Y-100600000D02*
X105300000Y-100600000D01*
X105300000Y-100600000D02*
X105300000Y-99000000D01*
X105300000Y-99000000D02*
X106300000Y-99000000D01*
X100700000Y-100600000D02*
X100700000Y-102850000D01*
X100200000Y-100600000D02*
X100200000Y-102850000D01*
X100200000Y-96650000D02*
X100200000Y-95450000D01*
X92500000Y-102850000D02*
X92500000Y-98500000D01*
X92500000Y-98500000D02*
X95500000Y-98500000D01*
X95500000Y-98500000D02*
X95500000Y-102850000D01*
X91200000Y-96650000D02*
X90850000Y-96650000D01*
X90850000Y-96650000D02*
X90850000Y-95050000D01*
X90850000Y-95050000D02*
X89950000Y-95050000D01*
X89950000Y-95050000D02*
X89950000Y-102850000D01*
X89950000Y-102850000D02*
X98050000Y-102850000D01*
X98050000Y-102850000D02*
X98050000Y-95050000D01*
X98050000Y-95050000D02*
X97150000Y-95050000D01*
X97150000Y-95050000D02*
X97150000Y-96650000D01*
X97150000Y-96650000D02*
X96800000Y-96650000D01*
X89950000Y-96650000D02*
X90850000Y-96650000D01*
X98050000Y-96650000D02*
X97150000Y-96650000D01*
X90700000Y-99000000D02*
X90700000Y-100600000D01*
X90700000Y-100600000D02*
X91700000Y-100600000D01*
X91700000Y-100600000D02*
X91700000Y-99000000D01*
X91700000Y-99000000D02*
X90700000Y-99000000D01*
X97300000Y-99000000D02*
X97300000Y-100600000D01*
X97300000Y-100600000D02*
X96300000Y-100600000D01*
X96300000Y-100600000D02*
X96300000Y-99000000D01*
X96300000Y-99000000D02*
X97300000Y-99000000D01*
X91700000Y-100600000D02*
X91700000Y-102850000D01*
X91200000Y-100600000D02*
X91200000Y-102850000D01*
X91200000Y-96650000D02*
X91200000Y-95450000D01*
X83500000Y-102850000D02*
X83500000Y-98500000D01*
X83500000Y-98500000D02*
X86500000Y-98500000D01*
X86500000Y-98500000D02*
X86500000Y-102850000D01*
X82200000Y-96650000D02*
X81850000Y-96650000D01*
X81850000Y-96650000D02*
X81850000Y-95050000D01*
X81850000Y-95050000D02*
X80950000Y-95050000D01*
X80950000Y-95050000D02*
X80950000Y-102850000D01*
X80950000Y-102850000D02*
X89050000Y-102850000D01*
X89050000Y-102850000D02*
X89050000Y-95050000D01*
X89050000Y-95050000D02*
X88150000Y-95050000D01*
X88150000Y-95050000D02*
X88150000Y-96650000D01*
X88150000Y-96650000D02*
X87800000Y-96650000D01*
X80950000Y-96650000D02*
X81850000Y-96650000D01*
X89050000Y-96650000D02*
X88150000Y-96650000D01*
X81700000Y-99000000D02*
X81700000Y-100600000D01*
X81700000Y-100600000D02*
X82700000Y-100600000D01*
X82700000Y-100600000D02*
X82700000Y-99000000D01*
X82700000Y-99000000D02*
X81700000Y-99000000D01*
X88300000Y-99000000D02*
X88300000Y-100600000D01*
X88300000Y-100600000D02*
X87300000Y-100600000D01*
X87300000Y-100600000D02*
X87300000Y-99000000D01*
X87300000Y-99000000D02*
X88300000Y-99000000D01*
X82700000Y-100600000D02*
X82700000Y-102850000D01*
X82200000Y-100600000D02*
X82200000Y-102850000D01*
X82200000Y-96650000D02*
X82200000Y-95450000D01*
X95500000Y-75150000D02*
X95500000Y-79500000D01*
X95500000Y-79500000D02*
X92500000Y-79500000D01*
X92500000Y-79500000D02*
X92500000Y-75150000D01*
X96800000Y-81350000D02*
X97150000Y-81350000D01*
X97150000Y-81350000D02*
X97150000Y-82950000D01*
X97150000Y-82950000D02*
X98050000Y-82950000D01*
X98050000Y-82950000D02*
X98050000Y-75150000D01*
X98050000Y-75150000D02*
X89950000Y-75150000D01*
X89950000Y-75150000D02*
X89950000Y-82950000D01*
X89950000Y-82950000D02*
X90850000Y-82950000D01*
X90850000Y-82950000D02*
X90850000Y-81350000D01*
X90850000Y-81350000D02*
X91200000Y-81350000D01*
X98050000Y-81350000D02*
X97150000Y-81350000D01*
X89950000Y-81350000D02*
X90850000Y-81350000D01*
X97300000Y-79000000D02*
X97300000Y-77400000D01*
X97300000Y-77400000D02*
X96300000Y-77400000D01*
X96300000Y-77400000D02*
X96300000Y-79000000D01*
X96300000Y-79000000D02*
X97300000Y-79000000D01*
X90700000Y-79000000D02*
X90700000Y-77400000D01*
X90700000Y-77400000D02*
X91700000Y-77400000D01*
X91700000Y-77400000D02*
X91700000Y-79000000D01*
X91700000Y-79000000D02*
X90700000Y-79000000D01*
X96300000Y-77400000D02*
X96300000Y-75150000D01*
X96800000Y-77400000D02*
X96800000Y-75150000D01*
X96800000Y-81350000D02*
X96800000Y-82550000D01*
X104500000Y-75150000D02*
X104500000Y-79500000D01*
X104500000Y-79500000D02*
X101500000Y-79500000D01*
X101500000Y-79500000D02*
X101500000Y-75150000D01*
X105800000Y-81350000D02*
X106150000Y-81350000D01*
X106150000Y-81350000D02*
X106150000Y-82950000D01*
X106150000Y-82950000D02*
X107050000Y-82950000D01*
X107050000Y-82950000D02*
X107050000Y-75150000D01*
X107050000Y-75150000D02*
X98950000Y-75150000D01*
X98950000Y-75150000D02*
X98950000Y-82950000D01*
X98950000Y-82950000D02*
X99850000Y-82950000D01*
X99850000Y-82950000D02*
X99850000Y-81350000D01*
X99850000Y-81350000D02*
X100200000Y-81350000D01*
X107050000Y-81350000D02*
X106150000Y-81350000D01*
X98950000Y-81350000D02*
X99850000Y-81350000D01*
X106300000Y-79000000D02*
X106300000Y-77400000D01*
X106300000Y-77400000D02*
X105300000Y-77400000D01*
X105300000Y-77400000D02*
X105300000Y-79000000D01*
X105300000Y-79000000D02*
X106300000Y-79000000D01*
X99700000Y-79000000D02*
X99700000Y-77400000D01*
X99700000Y-77400000D02*
X100700000Y-77400000D01*
X100700000Y-77400000D02*
X100700000Y-79000000D01*
X100700000Y-79000000D02*
X99700000Y-79000000D01*
X105300000Y-77400000D02*
X105300000Y-75150000D01*
X105800000Y-77400000D02*
X105800000Y-75150000D01*
X105800000Y-81350000D02*
X105800000Y-82550000D01*
X113500000Y-75150000D02*
X113500000Y-79500000D01*
X113500000Y-79500000D02*
X110500000Y-79500000D01*
X110500000Y-79500000D02*
X110500000Y-75150000D01*
X114800000Y-81350000D02*
X115150000Y-81350000D01*
X115150000Y-81350000D02*
X115150000Y-82950000D01*
X115150000Y-82950000D02*
X116050000Y-82950000D01*
X116050000Y-82950000D02*
X116050000Y-75150000D01*
X116050000Y-75150000D02*
X107950000Y-75150000D01*
X107950000Y-75150000D02*
X107950000Y-82950000D01*
X107950000Y-82950000D02*
X108850000Y-82950000D01*
X108850000Y-82950000D02*
X108850000Y-81350000D01*
X108850000Y-81350000D02*
X109200000Y-81350000D01*
X116050000Y-81350000D02*
X115150000Y-81350000D01*
X107950000Y-81350000D02*
X108850000Y-81350000D01*
X115300000Y-79000000D02*
X115300000Y-77400000D01*
X115300000Y-77400000D02*
X114300000Y-77400000D01*
X114300000Y-77400000D02*
X114300000Y-79000000D01*
X114300000Y-79000000D02*
X115300000Y-79000000D01*
X108700000Y-79000000D02*
X108700000Y-77400000D01*
X108700000Y-77400000D02*
X109700000Y-77400000D01*
X109700000Y-77400000D02*
X109700000Y-79000000D01*
X109700000Y-79000000D02*
X108700000Y-79000000D01*
X114300000Y-77400000D02*
X114300000Y-75150000D01*
X114800000Y-77400000D02*
X114800000Y-75150000D01*
X114800000Y-81350000D02*
X114800000Y-82550000D01*
X122500000Y-75150000D02*
X122500000Y-79500000D01*
X122500000Y-79500000D02*
X119500000Y-79500000D01*
X119500000Y-79500000D02*
X119500000Y-75150000D01*
X123800000Y-81350000D02*
X124150000Y-81350000D01*
X124150000Y-81350000D02*
X124150000Y-82950000D01*
X124150000Y-82950000D02*
X125050000Y-82950000D01*
X125050000Y-82950000D02*
X125050000Y-75150000D01*
X125050000Y-75150000D02*
X116950000Y-75150000D01*
X116950000Y-75150000D02*
X116950000Y-82950000D01*
X116950000Y-82950000D02*
X117850000Y-82950000D01*
X117850000Y-82950000D02*
X117850000Y-81350000D01*
X117850000Y-81350000D02*
X118200000Y-81350000D01*
X125050000Y-81350000D02*
X124150000Y-81350000D01*
X116950000Y-81350000D02*
X117850000Y-81350000D01*
X124300000Y-79000000D02*
X124300000Y-77400000D01*
X124300000Y-77400000D02*
X123300000Y-77400000D01*
X123300000Y-77400000D02*
X123300000Y-79000000D01*
X123300000Y-79000000D02*
X124300000Y-79000000D01*
X117700000Y-79000000D02*
X117700000Y-77400000D01*
X117700000Y-77400000D02*
X118700000Y-77400000D01*
X118700000Y-77400000D02*
X118700000Y-79000000D01*
X118700000Y-79000000D02*
X117700000Y-79000000D01*
X123300000Y-77400000D02*
X123300000Y-75150000D01*
X123800000Y-77400000D02*
X123800000Y-75150000D01*
X123800000Y-81350000D02*
X123800000Y-82550000D01*
X131500000Y-75150000D02*
X131500000Y-79500000D01*
X131500000Y-79500000D02*
X128500000Y-79500000D01*
X128500000Y-79500000D02*
X128500000Y-75150000D01*
X132800000Y-81350000D02*
X133150000Y-81350000D01*
X133150000Y-81350000D02*
X133150000Y-82950000D01*
X133150000Y-82950000D02*
X134050000Y-82950000D01*
X134050000Y-82950000D02*
X134050000Y-75150000D01*
X134050000Y-75150000D02*
X125950000Y-75150000D01*
X125950000Y-75150000D02*
X125950000Y-82950000D01*
X125950000Y-82950000D02*
X126850000Y-82950000D01*
X126850000Y-82950000D02*
X126850000Y-81350000D01*
X126850000Y-81350000D02*
X127200000Y-81350000D01*
X134050000Y-81350000D02*
X133150000Y-81350000D01*
X125950000Y-81350000D02*
X126850000Y-81350000D01*
X133300000Y-79000000D02*
X133300000Y-77400000D01*
X133300000Y-77400000D02*
X132300000Y-77400000D01*
X132300000Y-77400000D02*
X132300000Y-79000000D01*
X132300000Y-79000000D02*
X133300000Y-79000000D01*
X126700000Y-79000000D02*
X126700000Y-77400000D01*
X126700000Y-77400000D02*
X127700000Y-77400000D01*
X127700000Y-77400000D02*
X127700000Y-79000000D01*
X127700000Y-79000000D02*
X126700000Y-79000000D01*
X132300000Y-77400000D02*
X132300000Y-75150000D01*
X132800000Y-77400000D02*
X132800000Y-75150000D01*
X132800000Y-81350000D02*
X132800000Y-82550000D01*
X140500000Y-75150000D02*
X140500000Y-79500000D01*
X140500000Y-79500000D02*
X137500000Y-79500000D01*
X137500000Y-79500000D02*
X137500000Y-75150000D01*
X141800000Y-81350000D02*
X142150000Y-81350000D01*
X142150000Y-81350000D02*
X142150000Y-82950000D01*
X142150000Y-82950000D02*
X143050000Y-82950000D01*
X143050000Y-82950000D02*
X143050000Y-75150000D01*
X143050000Y-75150000D02*
X134950000Y-75150000D01*
X134950000Y-75150000D02*
X134950000Y-82950000D01*
X134950000Y-82950000D02*
X135850000Y-82950000D01*
X135850000Y-82950000D02*
X135850000Y-81350000D01*
X135850000Y-81350000D02*
X136200000Y-81350000D01*
X143050000Y-81350000D02*
X142150000Y-81350000D01*
X134950000Y-81350000D02*
X135850000Y-81350000D01*
X142300000Y-79000000D02*
X142300000Y-77400000D01*
X142300000Y-77400000D02*
X141300000Y-77400000D01*
X141300000Y-77400000D02*
X141300000Y-79000000D01*
X141300000Y-79000000D02*
X142300000Y-79000000D01*
X135700000Y-79000000D02*
X135700000Y-77400000D01*
X135700000Y-77400000D02*
X136700000Y-77400000D01*
X136700000Y-77400000D02*
X136700000Y-79000000D01*
X136700000Y-79000000D02*
X135700000Y-79000000D01*
X141300000Y-77400000D02*
X141300000Y-75150000D01*
X141800000Y-77400000D02*
X141800000Y-75150000D01*
X141800000Y-81350000D02*
X141800000Y-82550000D01*
X149500000Y-75150000D02*
X149500000Y-79500000D01*
X149500000Y-79500000D02*
X146500000Y-79500000D01*
X146500000Y-79500000D02*
X146500000Y-75150000D01*
X150800000Y-81350000D02*
X151150000Y-81350000D01*
X151150000Y-81350000D02*
X151150000Y-82950000D01*
X151150000Y-82950000D02*
X152050000Y-82950000D01*
X152050000Y-82950000D02*
X152050000Y-75150000D01*
X152050000Y-75150000D02*
X143950000Y-75150000D01*
X143950000Y-75150000D02*
X143950000Y-82950000D01*
X143950000Y-82950000D02*
X144850000Y-82950000D01*
X144850000Y-82950000D02*
X144850000Y-81350000D01*
X144850000Y-81350000D02*
X145200000Y-81350000D01*
X152050000Y-81350000D02*
X151150000Y-81350000D01*
X143950000Y-81350000D02*
X144850000Y-81350000D01*
X151300000Y-79000000D02*
X151300000Y-77400000D01*
X151300000Y-77400000D02*
X150300000Y-77400000D01*
X150300000Y-77400000D02*
X150300000Y-79000000D01*
X150300000Y-79000000D02*
X151300000Y-79000000D01*
X144700000Y-79000000D02*
X144700000Y-77400000D01*
X144700000Y-77400000D02*
X145700000Y-77400000D01*
X145700000Y-77400000D02*
X145700000Y-79000000D01*
X145700000Y-79000000D02*
X144700000Y-79000000D01*
X150300000Y-77400000D02*
X150300000Y-75150000D01*
X150800000Y-77400000D02*
X150800000Y-75150000D01*
X150800000Y-81350000D02*
X150800000Y-82550000D01*
X146500000Y-102850000D02*
X146500000Y-98500000D01*
X146500000Y-98500000D02*
X149500000Y-98500000D01*
X149500000Y-98500000D02*
X149500000Y-102850000D01*
X145200000Y-96650000D02*
X144850000Y-96650000D01*
X144850000Y-96650000D02*
X144850000Y-95050000D01*
X144850000Y-95050000D02*
X143950000Y-95050000D01*
X143950000Y-95050000D02*
X143950000Y-102850000D01*
X143950000Y-102850000D02*
X152050000Y-102850000D01*
X152050000Y-102850000D02*
X152050000Y-95050000D01*
X152050000Y-95050000D02*
X151150000Y-95050000D01*
X151150000Y-95050000D02*
X151150000Y-96650000D01*
X151150000Y-96650000D02*
X150800000Y-96650000D01*
X143950000Y-96650000D02*
X144850000Y-96650000D01*
X152050000Y-96650000D02*
X151150000Y-96650000D01*
X144700000Y-99000000D02*
X144700000Y-100600000D01*
X144700000Y-100600000D02*
X145700000Y-100600000D01*
X145700000Y-100600000D02*
X145700000Y-99000000D01*
X145700000Y-99000000D02*
X144700000Y-99000000D01*
X151300000Y-99000000D02*
X151300000Y-100600000D01*
X151300000Y-100600000D02*
X150300000Y-100600000D01*
X150300000Y-100600000D02*
X150300000Y-99000000D01*
X150300000Y-99000000D02*
X151300000Y-99000000D01*
X145700000Y-100600000D02*
X145700000Y-102850000D01*
X145200000Y-100600000D02*
X145200000Y-102850000D01*
X145200000Y-96650000D02*
X145200000Y-95450000D01*
X137500000Y-102850000D02*
X137500000Y-98500000D01*
X137500000Y-98500000D02*
X140500000Y-98500000D01*
X140500000Y-98500000D02*
X140500000Y-102850000D01*
X136200000Y-96650000D02*
X135850000Y-96650000D01*
X135850000Y-96650000D02*
X135850000Y-95050000D01*
X135850000Y-95050000D02*
X134950000Y-95050000D01*
X134950000Y-95050000D02*
X134950000Y-102850000D01*
X134950000Y-102850000D02*
X143050000Y-102850000D01*
X143050000Y-102850000D02*
X143050000Y-95050000D01*
X143050000Y-95050000D02*
X142150000Y-95050000D01*
X142150000Y-95050000D02*
X142150000Y-96650000D01*
X142150000Y-96650000D02*
X141800000Y-96650000D01*
X134950000Y-96650000D02*
X135850000Y-96650000D01*
X143050000Y-96650000D02*
X142150000Y-96650000D01*
X135700000Y-99000000D02*
X135700000Y-100600000D01*
X135700000Y-100600000D02*
X136700000Y-100600000D01*
X136700000Y-100600000D02*
X136700000Y-99000000D01*
X136700000Y-99000000D02*
X135700000Y-99000000D01*
X142300000Y-99000000D02*
X142300000Y-100600000D01*
X142300000Y-100600000D02*
X141300000Y-100600000D01*
X141300000Y-100600000D02*
X141300000Y-99000000D01*
X141300000Y-99000000D02*
X142300000Y-99000000D01*
X136700000Y-100600000D02*
X136700000Y-102850000D01*
X136200000Y-100600000D02*
X136200000Y-102850000D01*
X136200000Y-96650000D02*
X136200000Y-95450000D01*
X128500000Y-102850000D02*
X128500000Y-98500000D01*
X128500000Y-98500000D02*
X131500000Y-98500000D01*
X131500000Y-98500000D02*
X131500000Y-102850000D01*
X127200000Y-96650000D02*
X126850000Y-96650000D01*
X126850000Y-96650000D02*
X126850000Y-95050000D01*
X126850000Y-95050000D02*
X125950000Y-95050000D01*
X125950000Y-95050000D02*
X125950000Y-102850000D01*
X125950000Y-102850000D02*
X134050000Y-102850000D01*
X134050000Y-102850000D02*
X134050000Y-95050000D01*
X134050000Y-95050000D02*
X133150000Y-95050000D01*
X133150000Y-95050000D02*
X133150000Y-96650000D01*
X133150000Y-96650000D02*
X132800000Y-96650000D01*
X125950000Y-96650000D02*
X126850000Y-96650000D01*
X134050000Y-96650000D02*
X133150000Y-96650000D01*
X126700000Y-99000000D02*
X126700000Y-100600000D01*
X126700000Y-100600000D02*
X127700000Y-100600000D01*
X127700000Y-100600000D02*
X127700000Y-99000000D01*
X127700000Y-99000000D02*
X126700000Y-99000000D01*
X133300000Y-99000000D02*
X133300000Y-100600000D01*
X133300000Y-100600000D02*
X132300000Y-100600000D01*
X132300000Y-100600000D02*
X132300000Y-99000000D01*
X132300000Y-99000000D02*
X133300000Y-99000000D01*
X127700000Y-100600000D02*
X127700000Y-102850000D01*
X127200000Y-100600000D02*
X127200000Y-102850000D01*
X127200000Y-96650000D02*
X127200000Y-95450000D01*
X119500000Y-102850000D02*
X119500000Y-98500000D01*
X119500000Y-98500000D02*
X122500000Y-98500000D01*
X122500000Y-98500000D02*
X122500000Y-102850000D01*
X118200000Y-96650000D02*
X117850000Y-96650000D01*
X117850000Y-96650000D02*
X117850000Y-95050000D01*
X117850000Y-95050000D02*
X116950000Y-95050000D01*
X116950000Y-95050000D02*
X116950000Y-102850000D01*
X116950000Y-102850000D02*
X125050000Y-102850000D01*
X125050000Y-102850000D02*
X125050000Y-95050000D01*
X125050000Y-95050000D02*
X124150000Y-95050000D01*
X124150000Y-95050000D02*
X124150000Y-96650000D01*
X124150000Y-96650000D02*
X123800000Y-96650000D01*
X116950000Y-96650000D02*
X117850000Y-96650000D01*
X125050000Y-96650000D02*
X124150000Y-96650000D01*
X117700000Y-99000000D02*
X117700000Y-100600000D01*
X117700000Y-100600000D02*
X118700000Y-100600000D01*
X118700000Y-100600000D02*
X118700000Y-99000000D01*
X118700000Y-99000000D02*
X117700000Y-99000000D01*
X124300000Y-99000000D02*
X124300000Y-100600000D01*
X124300000Y-100600000D02*
X123300000Y-100600000D01*
X123300000Y-100600000D02*
X123300000Y-99000000D01*
X123300000Y-99000000D02*
X124300000Y-99000000D01*
X118700000Y-100600000D02*
X118700000Y-102850000D01*
X118200000Y-100600000D02*
X118200000Y-102850000D01*
X118200000Y-96650000D02*
X118200000Y-95450000D01*
X81650000Y-86900000D02*
X82350000Y-86900000D01*
X82350000Y-88100000D02*
X81650000Y-88100000D01*
D14*
X77190476Y-78682380D02*
X77190476Y-79396666D01*
X77142857Y-79539523D01*
X77047619Y-79634761D01*
X76904761Y-79682380D01*
X76809523Y-79682380D01*
X78190476Y-79682380D02*
X77619047Y-79682380D01*
X77904761Y-79682380D02*
X77904761Y-78682380D01*
X77809523Y-78825238D01*
X77714285Y-78920476D01*
X77619047Y-78968095D01*
X78523809Y-78682380D02*
X79190476Y-78682380D01*
X78761904Y-79682380D01*
D13*
X115324014Y-89192434D02*
X116050987Y-89919407D01*
X116179276Y-89962170D01*
X116264802Y-89962170D01*
X116393092Y-89919407D01*
X116564144Y-89748354D01*
X116606907Y-89620065D01*
X116606907Y-89534539D01*
X116564144Y-89406249D01*
X115837171Y-88679276D01*
X117633222Y-88679276D02*
X117120065Y-89192434D01*
X117376644Y-88935855D02*
X116478618Y-88037829D01*
X116521381Y-88251645D01*
X116521381Y-88422697D01*
X116478618Y-88550987D01*
M02*
